<?xml version="1.0" encoding="utf-8"?>
<!-- Generator: Adobe Illustrator 25.0.1, SVG Export Plug-In . SVG Version: 6.00 Build 0)  -->
<svg version="1.1" id="Layer_1" xmlns="http://www.w3.org/2000/svg" xmlns:xlink="http://www.w3.org/1999/xlink" x="0px" y="0px"
	 viewBox="0 0 210 512" style="enable-background:new 0 0 210 512;" xml:space="preserve">
<style type="text/css">
	.st0{fill:#232020;}
	.st1{fill:#006C68;}
</style>
<path class="st0" d="M191,415.5c-5.5,0-10,4.5-10,10c0,5.5,4.5,10,10,10s10-4.5,10-10c0-2.7-1.1-5.2-2.9-7.1
	C196.2,416.6,193.7,415.5,191,415.5z"/>
<path class="st0" d="M171.2,232c-17.8-31.9-27.2-67.7-27.2-104.2V20.6C144,9.2,134.8,0,123.4,0H86.5C75.1,0,65.9,9.2,65.9,20.6
	v107.2c0,36.5-9.4,72.3-27.1,104.1v0.1C19.3,266.8,9,306,9,345.9V483c0,16,13,29,29,29h134.1c16-0.1,28.9-13,28.9-29v-22
	c0-5.5-4.5-10-10-10s-10,4.5-10,10v22c0,4.9-4,8.9-9,9H38c-4.9,0-8.9-4-8.9-9V345.9c0-36.5,9.4-72.3,27.1-104.1l0.1-0.1
	c15.5-27.8,25.2-58.4,28.4-90h40.6c3.3,31.6,13,62.2,28.5,90C171.6,273.6,181,309.5,181,346v37.7c0,5.5,4.5,10,10,10s10-4.5,10-10
	V346C201,306.1,190.7,266.8,171.2,232z M85.9,20.6c0-0.4,0.3-0.6,0.6-0.6h36.9c0.4,0,0.6,0.3,0.6,0.6c0,0,0,0,0,0V48H85.9V20.6z
	 M85.9,131.7c0-1.3,0-2.6,0-3.9V68H124v59.8c0,1.3,0,2.6,0,4L85.9,131.7z"/>
<path class="st0" d="M59,309.3c-5.5,0-10,4.5-10,10v128.9c0,5.5,4.5,10,10,10h92.1c5.5,0,10-4.5,10-10V319.3c0-5.5-4.5-10-10-10H59z
	 M141.1,438.1H69V329.3h72.1V438.1z"/>
<path class="st1" d="M750,415.5c-5.5,0-10,4.5-10,10c0,5.5,4.5,10,10,10c5.5,0,10-4.5,10-10c0-2.7-1.1-5.2-2.9-7.1
	C755.2,416.6,752.7,415.5,750,415.5z"/>
<path class="st1" d="M730.2,232c-17.8-31.9-27.2-67.7-27.2-104.2V20.6C703,9.2,693.8,0,682.4,0h-36.9c-11.4,0-20.6,9.2-20.7,20.6
	v107.2c0,36.5-9.4,72.3-27.1,104.1v0.1c-19.5,34.8-29.7,74-29.7,113.9V483c0,16,13,29,29,29h134.1c16-0.1,28.9-13,28.9-29v-22
	c0-5.5-4.5-10-10-10s-10,4.5-10,10v22c0,4.9-4,8.9-9,9H597c-4.9,0-8.9-4-9-9V345.9c0-36.5,9.4-72.3,27.1-104.1l0-0.1
	c15.5-27.8,25.2-58.4,28.4-90h40.6c3.3,31.6,13,62.2,28.5,90C730.6,273.6,740,309.5,740,346v37.7c0,5.5,4.5,10,10,10s10-4.5,10-10
	V346C760,306.1,749.7,266.8,730.2,232z M644.9,20.6c0-0.4,0.3-0.6,0.7-0.6h36.9c0.4,0,0.6,0.3,0.6,0.6c0,0,0,0,0,0V48h-38.2V20.6z
	 M644.9,131.7c0-1.3,0-2.6,0-3.9V68H683v59.8c0,1.3,0,2.6,0,4L644.9,131.7z"/>
<path class="st1" d="M618,309.3c-5.5,0-10,4.5-10,10v128.9c0,5.5,4.5,10,10,10h92.1c5.5,0,10-4.5,10-10V319.3c0-5.5-4.5-10-10-10
	H618z M700.1,438.1H628V329.3h72.1V438.1z"/>
</svg>
