<svg id="Layer_1" data-name="Layer 1" xmlns="http://www.w3.org/2000/svg" xmlns:xlink="http://www.w3.org/1999/xlink" viewBox="0 0 379.01 380.73"><defs><style>.cls-1{fill:none;}.cls-2{clip-path:url(#clip-path);}.cls-3{fill:#fde7db;}</style><clipPath id="clip-path"><rect class="cls-1" x="3.81" y="3.16" width="372" height="375"/></clipPath></defs><g class="cls-2"><path class="cls-3" d="M291.51,134.15,274.11,142A122.37,122.37,0,0,1,264,120.75a66.78,66.78,0,0,1-4.19-26.33c.61-9.24,6.87-21.94,17-21.94H277a13.65,13.65,0,0,1,9.57,4.64A20,20,0,0,1,292.1,91a9.78,9.78,0,0,1-3.32,7.63,3.63,3.63,0,0,1-4.28-.13c-.56-.44-1.86-1.48-.56-5.68a6.2,6.2,0,0,0-11.85-3.65,16.38,16.38,0,0,0,4.69,19,15.91,15.91,0,0,0,19,.71,21.79,21.79,0,0,0,8.73-17.44,32.27,32.27,0,0,0-9-22.85,26,26,0,0,0-18.33-8.48h-.3c-16.72,0-28.27,17.34-29.35,33.5a78.8,78.8,0,0,0,4.86,31.27,132,132,0,0,0,10.43,22.19l-14.37,6.44c-.38-1.86-.72-3.81-1.19-5.64a78.66,78.66,0,0,0-13.3-28.71c-9.91-12.94-29.29-21-43.23-11.43A25.93,25.93,0,0,0,180.08,125a32.3,32.3,0,0,0,5.18,24,21.74,21.74,0,0,0,16.93,9.67,15.67,15.67,0,0,0,15.39-11.11,16.31,16.31,0,0,0-6.71-18.41,6.19,6.19,0,1,0-7.81,9.6c3.39,2.77,2.88,4.33,2.67,5a3.63,3.63,0,0,1-3.45,2.48h0a9.87,9.87,0,0,1-7-4.51,20,20,0,0,1-3-14.64,13.78,13.78,0,0,1,5.4-9.17c8.45-5.77,20.76,1.38,26.42,8.75a66.59,66.59,0,0,1,11.15,24.23c.62,2.48,1.15,5.11,1.62,7.77L203,173.82a11.84,11.84,0,0,0-6.52,14.09l31.87,108.23a60.25,60.25,0,0,0,10.06,20.54,63.08,63.08,0,0,0,42.38,23.59,50.78,50.78,0,0,1,40.94,29.26l1.24,2.76a6.19,6.19,0,0,0,5.65,3.67h30.81a6.19,6.19,0,0,0,5.64-8.74l-6.39-14.17a50.26,50.26,0,0,1,5.41-50.12,63,63,0,0,0,10.54-47.29,60.12,60.12,0,0,0-8.6-21.16L306.33,138.7a11.71,11.71,0,0,0-14.82-4.55ZM238.4,171.54a173,173,0,0,1,.34,20c-.18,4.5-.67,8.91-1.18,13.59-.24,2.11-.47,4.22-.67,6.35A48.27,48.27,0,0,0,240,236.28a6.19,6.19,0,1,0,11.24-5.17,36.77,36.77,0,0,1-2-18.47c.2-2.06.43-4.12.62-6.19.52-4.68,1.06-9.52,1.24-14.45a178.08,178.08,0,0,0-.76-25.82l19-8.54c1.37,2,2.68,4.05,4.18,6.13,2.9,4,6,7.71,9.05,11.31,1.33,1.59,2.66,3.18,4,4.79a36.57,36.57,0,0,1,8.63,16.48,6.19,6.19,0,1,0,12.23-1.94,48.52,48.52,0,0,0-11.22-22.36c-1.36-1.65-2.72-3.28-4.09-4.91-3-3.6-5.88-7-8.51-10.64-1-1.36-1.81-2.66-2.73-4l15.23-6.81L337,211.27a46.9,46.9,0,0,1-10.28-1.43,43.17,43.17,0,0,0-51.25,23,31,31,0,0,1-37.69,16.92A66.61,66.61,0,0,0,227.07,248l-18.58-63Zm124,86.3a50.47,50.47,0,0,1-8.45,37.9,63.36,63.36,0,0,0-6.62,62.35l2.48,5.48H332.62A63.28,63.28,0,0,0,282.16,328a50.56,50.56,0,0,1-34-18.91,48,48,0,0,1-7.94-16.37l-9.36-31.78c1.35.26,2.71.55,4.14.87a57.21,57.21,0,0,0,13,1.86,40.51,40.51,0,0,0,16.83-3.86,41.86,41.86,0,0,0,21.41-21,31,31,0,0,1,37.68-16.89A45.43,45.43,0,0,0,344.25,223l11.25,18a48.11,48.11,0,0,1,6.93,16.82Zm0,0"/></g><path class="cls-3" d="M284.57,305.61a27.78,27.78,0,0,1-18.72-10.39,27.12,27.12,0,0,1-4.08-8.85,6.2,6.2,0,1,0-11.89,3.49,38.67,38.67,0,0,0,6.19,13,40.2,40.2,0,0,0,27.12,15.07c.23,0,.45,0,.68,0a6.19,6.19,0,0,0,.7-12.36Zm0,0"/><path class="cls-3" d="M189.77,253.82a30.62,30.62,0,0,0-15.08-25.27,9.49,9.49,0,0,1-2-1.23,28.62,28.62,0,0,1,1.5-3.52,33,33,0,0,0,3.93-14.47,12.93,12.93,0,0,0-5.27-11.08,14.8,14.8,0,0,0-5.33-2.33c5.08-7.43,8.44-16.1,2.6-21.94a46.27,46.27,0,0,0-6.79-5.2c-2.71-1.86-7.77-5.29-7.95-7.17,0-.44.41-1.7,2.35-3.64a30.34,30.34,0,0,0,10.85-25.34,21,21,0,0,0-12.46-15.55c-1.85-.94-4.44-2-7.47-3.29-16.21-6.82-46.39-19.5-51.12-47.93A92.07,92.07,0,0,0,58.26,6.31c-2-1.88-5.13-3.3-48.25-2a6,6,0,0,0-1.11.26,6.75,6.75,0,0,0-1.18.28,6.2,6.2,0,0,0-1,.7,5.12,5.12,0,0,0-1,.66,5.8,5.8,0,0,0-.66,1,6.89,6.89,0,0,0-.63,1A6.32,6.32,0,0,0,4.21,9.5a5.31,5.31,0,0,0-.2,1V370.88a6,6,0,0,0,.28,1.46,7.21,7.21,0,0,0,.19.9A6,6,0,0,0,5.64,375a1.43,1.43,0,0,0,.14.2,6.16,6.16,0,0,0,4.42,1.86h.08l51.41.56h.06a6.2,6.2,0,0,0,6.2-5.73c2.86-37.5,19.69-59.53,33.89-71.66,25.92-2.73,59.65-8.41,73.51-17.65A31.51,31.51,0,0,0,189.77,253.82ZM168.5,272.27c-12.13,8.09-48.6,13.94-74.66,16.34L82.72,301.84a114.65,114.65,0,0,0-26.58,63.33v0l-39.75-.45V16.57c15.23-.38,30.74-.45,35,.07A80.71,80.71,0,0,1,85.29,67.86c5.86,35.16,41.43,50.12,58.53,57.3,2.74,1.15,5.05,2.11,6.74,3a9.3,9.3,0,0,1,5.78,6.45,19.28,19.28,0,0,1-7.41,14.6A17,17,0,0,0,143,162.74c.73,7.68,7.71,12.43,13.32,16.24,1.62,1.1,3.29,2.23,4.4,3.18a49.94,49.94,0,0,1-11.8,16.56A6.19,6.19,0,0,0,155.26,209a17.35,17.35,0,0,1,10.3-.75,2.72,2.72,0,0,1,.14,1.06,21.59,21.59,0,0,1-2.76,9.19c-2.41,5.1-6.88,14.59,6.19,21.13a18.47,18.47,0,0,1,8.29,15A19.2,19.2,0,0,1,168.5,272.27Z"/></svg>