<svg id="Layer_1" data-name="Layer 1" xmlns="http://www.w3.org/2000/svg" xmlns:xlink="http://www.w3.org/1999/xlink" viewBox="0 0 380.13 380.73"><defs><style>.cls-1{fill:none;}.cls-2{clip-path:url(#clip-path);}.cls-3{fill:#3d2b56;}</style><clipPath id="clip-path"><rect class="cls-1" x="4.37" y="3.16" width="372" height="375"/></clipPath></defs><g class="cls-2"><path class="cls-3" d="M292.07,134.15,274.67,142a122.37,122.37,0,0,1-10.11-21.21,66.6,66.6,0,0,1-4.18-26.33c.6-9.24,6.86-21.94,17-21.94h.14a13.63,13.63,0,0,1,9.57,4.64A19.94,19.94,0,0,1,292.66,91a9.81,9.81,0,0,1-3.31,7.63,3.65,3.65,0,0,1-4.29-.13c-.56-.44-1.86-1.48-.56-5.68a6.2,6.2,0,0,0-11.85-3.65,16.38,16.38,0,0,0,4.69,19,15.93,15.93,0,0,0,19,.71A21.78,21.78,0,0,0,305,91.42a32.27,32.27,0,0,0-9-22.85,26,26,0,0,0-18.33-8.48h-.3c-16.72,0-28.27,17.34-29.35,33.5a78.8,78.8,0,0,0,4.86,31.27,132.81,132.81,0,0,0,10.43,22.19L249,153.49c-.38-1.86-.72-3.81-1.18-5.64a78.85,78.85,0,0,0-13.31-28.71c-9.91-12.94-29.29-21-43.23-11.43A25.93,25.93,0,0,0,180.64,125a32.3,32.3,0,0,0,5.19,24,21.74,21.74,0,0,0,16.92,9.67,15.68,15.68,0,0,0,15.4-11.11,16.33,16.33,0,0,0-6.72-18.41,6.19,6.19,0,1,0-7.81,9.6c3.39,2.77,2.89,4.33,2.67,5a3.62,3.62,0,0,1-3.45,2.48h0a9.87,9.87,0,0,1-7-4.51,20,20,0,0,1-3-14.64,13.77,13.77,0,0,1,5.39-9.17c8.45-5.77,20.76,1.38,26.42,8.75a66.43,66.43,0,0,1,11.15,24.23c.62,2.48,1.15,5.11,1.63,7.77l-33.83,15.16A11.84,11.84,0,0,0,197,187.91L228.9,296.14A60.1,60.1,0,0,0,239,316.68a63,63,0,0,0,42.38,23.59,50.78,50.78,0,0,1,40.93,29.26l1.24,2.76a6.19,6.19,0,0,0,5.65,3.67H360a6.2,6.2,0,0,0,5.65-8.74l-6.4-14.17a50.26,50.26,0,0,1,5.42-50.12,62.94,62.94,0,0,0,10.53-47.29,59.93,59.93,0,0,0-8.6-21.16L306.89,138.7a11.7,11.7,0,0,0-14.82-4.55ZM239,171.54a175.26,175.26,0,0,1,.33,20c-.18,4.5-.66,8.91-1.18,13.59-.23,2.11-.47,4.22-.67,6.35a48.27,48.27,0,0,0,3.06,24.82,6.19,6.19,0,1,0,11.25-5.17,36.66,36.66,0,0,1-2-18.47c.2-2.06.42-4.12.62-6.19.52-4.68,1.06-9.52,1.24-14.45a179.51,179.51,0,0,0-.76-25.82l19-8.54c1.37,2,2.68,4.05,4.18,6.13,2.9,4,6,7.71,9.05,11.31,1.33,1.59,2.66,3.18,4,4.79a36.55,36.55,0,0,1,8.62,16.48A6.19,6.19,0,1,0,308,194.41a48.42,48.42,0,0,0-11.22-22.36c-1.35-1.65-2.72-3.28-4.08-4.91-3-3.6-5.88-7-8.52-10.64-1-1.36-1.81-2.66-2.73-4l15.23-6.81,40.88,65.58a47,47,0,0,1-10.28-1.43,43.17,43.17,0,0,0-51.25,23,31,31,0,0,1-37.69,16.92A66.49,66.49,0,0,0,227.64,248l-18.59-63Zm124,86.3a50.47,50.47,0,0,1-8.45,37.9,63.36,63.36,0,0,0-6.62,62.35l2.48,5.48H333.19A63.29,63.29,0,0,0,282.72,328a50.56,50.56,0,0,1-34-18.91,47.77,47.77,0,0,1-7.93-16.37l-9.36-31.78c1.34.26,2.7.55,4.13.87a57.21,57.21,0,0,0,13,1.86,40.51,40.51,0,0,0,16.83-3.86,41.86,41.86,0,0,0,21.41-21,31,31,0,0,1,37.69-16.89,45.38,45.38,0,0,0,20.3,1.07l11.25,18A47.92,47.92,0,0,1,363,257.84Zm0,0"/></g><path class="cls-3" d="M285.14,305.61a27.8,27.8,0,0,1-18.73-10.39,27.33,27.33,0,0,1-4.08-8.85,6.2,6.2,0,1,0-11.89,3.49,38.67,38.67,0,0,0,6.19,13,40.2,40.2,0,0,0,27.12,15.07c.23,0,.46,0,.69,0a6.19,6.19,0,0,0,.7-12.36Zm0,0"/><path class="cls-3" d="M190.33,253.82a30.6,30.6,0,0,0-15.08-25.27,9.49,9.49,0,0,1-2-1.23,28.62,28.62,0,0,1,1.5-3.52,33,33,0,0,0,3.94-14.47,13,13,0,0,0-5.27-11.08,14.92,14.92,0,0,0-5.34-2.33c5.08-7.43,8.45-16.1,2.6-21.94a46.19,46.19,0,0,0-6.78-5.2c-2.72-1.86-7.78-5.29-8-7.17,0-.44.41-1.7,2.35-3.64a30.34,30.34,0,0,0,10.85-25.34,21,21,0,0,0-12.45-15.55c-1.86-.94-4.45-2-7.48-3.29C133,107,102.8,94.29,98.07,65.86A92,92,0,0,0,58.82,6.31c-2-1.88-5.13-3.3-48.25-2a6,6,0,0,0-1.11.26,7,7,0,0,0-1.18.28,5.71,5.71,0,0,0-1,.7,4.55,4.55,0,0,0-1,.66,5.86,5.86,0,0,0-.67,1,6.06,6.06,0,0,0-.62,1A5.2,5.2,0,0,0,4.78,9.5a4.68,4.68,0,0,0-.21,1V370.88a5.56,5.56,0,0,0,.29,1.46,5.77,5.77,0,0,0,.19.9A6.22,6.22,0,0,0,6.2,375c.06.07.08.14.14.2a6.18,6.18,0,0,0,4.42,1.86h.08l51.41.56h.06a6.2,6.2,0,0,0,6.2-5.73c2.86-37.5,19.7-59.53,33.89-71.66,25.93-2.73,59.65-8.41,73.52-17.65A31.52,31.52,0,0,0,190.33,253.82Zm-21.27,18.45c-12.13,8.09-48.6,13.94-74.65,16.34L83.29,301.84a114.51,114.51,0,0,0-26.58,63.33v0L17,364.74V16.57c15.23-.38,30.73-.45,35,.07A80.74,80.74,0,0,1,85.85,67.86c5.86,35.16,41.44,50.12,58.54,57.3,2.73,1.15,5.05,2.11,6.73,3a9.3,9.3,0,0,1,5.78,6.45,19.24,19.24,0,0,1-7.41,14.6,17,17,0,0,0-5.91,13.57c.72,7.68,7.71,12.43,13.32,16.24,1.61,1.1,3.28,2.23,4.4,3.18a50,50,0,0,1-11.81,16.56A6.19,6.19,0,0,0,155.82,209a17.36,17.36,0,0,1,10.3-.75,2.55,2.55,0,0,1,.14,1.06,21.72,21.72,0,0,1-2.75,9.19c-2.41,5.1-6.89,14.59,6.19,21.13a18.49,18.49,0,0,1,8.29,15A19.21,19.21,0,0,1,169.06,272.27Z"/></svg>