<svg xmlns="http://www.w3.org/2000/svg" viewBox="0 0 156.61 412.23"><defs><style>.cls-1{fill:#f8f19e;}.cls-2{fill:#000100;}.cls-3{fill:#f4e184;opacity:0.64;}.cls-4{fill:#e8e2db;}.cls-5{fill:#bdb5a0;}.cls-6{fill:#006c68;}.cls-14,.cls-7{fill:#fde7da;}.cls-14,.cls-7,.cls-9{stroke:#000100;stroke-miterlimit:10;stroke-width:0.75px;}.cls-15,.cls-8{fill:#fef6f4;}.cls-8{opacity:0.8;}.cls-9{fill:#172015;}.cls-10{fill:#090c0b;opacity:0.53;}.cls-11{fill:#841710;}.cls-12{fill:#681410;}.cls-13{fill:#3d2b56;}.cls-14{font-size:72px;font-family:QuincyCF-ExtraBold, Quincy CF;font-weight:800;}.cls-15{opacity:0.21;}</style></defs><g id="White_bottle" data-name="White bottle"><path class="cls-1" d="M30.89,83.69s2.25,21.12-.56,29S7.8,137.47,7.24,150.42,3.3,359.34,5.55,363.28s5.07,13,40.55,13.52S88.33,370,90.58,360.47s3.19-210.23-2.81-220.18-19.71-18-20.84-28.16-.56-27.31-.56-27.31A55.07,55.07,0,0,0,30.89,83.69Z"/><path class="cls-2" d="M30.92,83.72c.37,3.4.62,6.9.78,10.35s.21,7,0,10.42c0,.87-.12,1.74-.18,2.6s-.19,1.74-.35,2.59L31,111c-.1.42-.24.84-.35,1.26a10.17,10.17,0,0,1-1,2.42,67,67,0,0,1-6.12,8.44c-4.34,5.4-8.84,10.73-12.31,16.72a26.31,26.31,0,0,0-3.58,9.6c-.17,1.7-.15,3.46-.21,5.18l-.12,5.21c-.57,27.75-.9,55.51-1.38,83.27s-.79,55.52-.9,83.28q0,10.41,0,20.82c0,3.47.08,6.94.19,10.4.08,1.73.11,3.48.36,5.17A3.07,3.07,0,0,0,6,363.9c.21.38.41.76.63,1.13a16.56,16.56,0,0,0,1.49,2.1c2.23,2.66,5.42,4.29,8.63,5.49a47.28,47.28,0,0,0,5,1.51c1.69.35,3.38.76,5.1,1a142.08,142.08,0,0,0,20.72,1.5,136.85,136.85,0,0,0,20.74-1.1,54,54,0,0,0,10.07-2.36,19.3,19.3,0,0,0,8.54-5.51,14.45,14.45,0,0,0,1.47-2.08c.22-.37.39-.77.58-1.15l.28-.57.22-.61c.14-.4.3-.8.42-1.21l.34-1.24a14,14,0,0,0,.37-2.53c.27-3.45.38-6.92.5-10.38.22-6.94.35-13.87.46-20.81q.63-41.64.33-83.28c-.22-27.75-.55-55.52-1.92-83.24-.2-3.46-.42-6.92-.74-10.37-.17-1.72-.34-3.45-.59-5.16-.12-.85-.26-1.7-.45-2.54a6.61,6.61,0,0,0-.84-2.34c-3.7-5.85-9.07-10.39-13.71-15.56A32.42,32.42,0,0,1,67.74,116a17.15,17.15,0,0,1-1.12-5.12c-.16-1.73-.26-3.47-.34-5.2-.29-7-.24-13.89,0-20.83l.08.11a45.21,45.21,0,0,0-8.64-2.49,55,55,0,0,0-9-1,54.13,54.13,0,0,0-9,.44A61,61,0,0,0,30.92,83.72Zm-.06,0a58.89,58.89,0,0,1,8.85-1.9,57.09,57.09,0,0,1,18,.47,45.63,45.63,0,0,1,8.7,2.47l.07,0v.08c-.17,6.94-.18,13.88.14,20.81.09,1.73.19,3.46.36,5.18a16.6,16.6,0,0,0,1.12,5A32.1,32.1,0,0,0,74,124.28c4.63,5.12,10,9.64,13.84,15.57a7.05,7.05,0,0,1,.92,2.51c.19.86.34,1.72.47,2.58.26,1.72.44,3.45.62,5.18.33,3.46.58,6.93.79,10.39.83,13.87,1.2,27.75,1.48,41.63s.42,27.76.5,41.65c.15,27.76.08,55.53-.38,83.29-.14,6.94-.29,13.88-.54,20.82-.13,3.47-.26,6.94-.55,10.41a16.45,16.45,0,0,1-1.18,5.12l-.23.62-.29.59c-.2.39-.37.8-.59,1.18A15.57,15.57,0,0,1,87.29,368a19.91,19.91,0,0,1-8.76,5.63,56.37,56.37,0,0,1-10.17,2.34,137.93,137.93,0,0,1-20.81,1,141.4,141.4,0,0,1-20.76-1.56c-1.73-.23-3.42-.65-5.12-1a45.61,45.61,0,0,1-5-1.53c-3.23-1.22-6.46-2.87-8.72-5.59a15.28,15.28,0,0,1-1.51-2.14c-.22-.37-.42-.76-.64-1.14l-.31-.57a2.13,2.13,0,0,1-.2-.65c-.25-1.74-.27-3.47-.35-5.21-.12-3.47-.18-6.94-.22-10.41-.09-6.94-.1-13.88-.1-20.82,0-27.77.31-55.53.64-83.29s.84-55.52,1.47-83.28l.13-5.2c.07-1.74,0-3.46.23-5.22a26.86,26.86,0,0,1,3.67-9.77c3.52-6,8.05-11.35,12.4-16.73a70.94,70.94,0,0,0,6.13-8.37,9.65,9.65,0,0,0,1-2.35c.12-.41.26-.82.35-1.24l.25-1.27c.18-.84.24-1.71.37-2.56s.15-1.73.2-2.59A149.3,149.3,0,0,0,30.86,83.67Z"/><path class="cls-3" d="M21.08,125.22s-9.07,12.18-12,19-2,22.24-2.11,46c1.39,9.18,73.1,2.73,83.76,6.67A450.8,450.8,0,0,0,88,141.27c-4.5-7.88-18.16-18.58-20.69-25.9-.56-.84-38-.14-38-.14"/><path class="cls-3" d="M5.18,323.44c-.38,6.76.14,16.38,0,40.17,1.39,9.17,66.82,24,84.84-.75.42-27.22,1.83-35.1,1.13-42.42C86.64,312.56,29.25,296,29.25,296"/><path class="cls-4" d="M32.3,6.83c5.91-3.66,29.56-3.66,31.53,1.41s2.54,76.58,2.54,76.58-11.83-3.38-35.48-1.13C31.46,61.73,31.46,9.64,32.3,6.83Z"/><path class="cls-2" d="M32.27,6.81a19.41,19.41,0,0,1,6.55-2,57.81,57.81,0,0,1,6.82-.63,68.22,68.22,0,0,1,6.86.11,37,37,0,0,1,6.78,1,12.11,12.11,0,0,1,3.2,1.28,3.86,3.86,0,0,1,1.28,1.2,3,3,0,0,1,.2.4l.12.43a8,8,0,0,1,.17.85c.35,2.27.49,4.55.65,6.83.29,4.56.47,9.12.64,13.69.62,18.26.91,36.52,1.13,54.79v.38l-.38-.09a60.91,60.91,0,0,0-8.74-1.37c-2.95-.28-5.91-.4-8.87-.45s-5.93,0-8.89.15l-4.43.26-4.43.36-.42,0v-.42c.16-6.4.24-12.8.32-19.21l.28-19.22L31.44,26c.06-3.2.14-6.41.25-9.61.06-1.6.1-3.2.19-4.8,0-.8.06-1.61.13-2.41L32.1,8C32.14,7.61,32.21,7.21,32.27,6.81Zm.06,0L32.19,8l-.06,1.2c-.05.8-.06,1.6-.09,2.4-.05,1.6-.06,3.2-.09,4.81L31.84,26l-.13,19.23c-.06,12.81-.13,25.63-.45,38.44l-.4-.38L35.31,83c1.48-.09,3-.19,4.45-.25,3-.11,6-.18,8.93-.11s6,.21,8.92.5a61.89,61.89,0,0,1,8.84,1.43l-.38.29c-.14-18.26-.36-36.53-.9-54.78-.15-4.56-.3-9.13-.57-13.68-.15-2.28-.27-4.57-.61-6.81a5.54,5.54,0,0,0-.16-.83l-.1-.4c0-.13-.13-.24-.19-.36a3.55,3.55,0,0,0-1.19-1.12,11.57,11.57,0,0,0-3.13-1.27A36.3,36.3,0,0,0,52.49,4.5a65.07,65.07,0,0,0-6.84-.15,57.4,57.4,0,0,0-6.81.59A19.66,19.66,0,0,0,32.33,6.85Z"/><path class="cls-5" d="M30.7,16c1.13-1.32,33.53-3.78,34.54-.75.94,2.81.75,10.32.75,10.32S32.39,28,31.08,26.73,30.33,17.53,30.7,16Z"/><path class="cls-2" d="M30.7,16A3.91,3.91,0,0,1,32,15.56c.47-.11.93-.2,1.4-.28.93-.16,1.87-.29,2.81-.42,1.87-.25,3.76-.45,5.64-.63q5.67-.5,11.35-.67c1.89-.05,3.79-.06,5.69,0,.95,0,1.9.09,2.86.19a11.78,11.78,0,0,1,2.86.6,2,2,0,0,1,.72.46,1.1,1.1,0,0,1,.24.43l.1.36A14.43,14.43,0,0,1,66,17.05c.14.95.22,1.9.28,2.85.11,1.91.13,3.8.11,5.71V26L66,26c-3.82.27-7.63.5-11.45.72s-7.63.42-11.46.53c-1.91.06-3.82.1-5.74.12a41.31,41.31,0,0,1-5.76-.24L31.24,27c-.14-.08-.31-.14-.36-.27a2.33,2.33,0,0,1-.34-.69,9.15,9.15,0,0,1-.28-1.44,23.1,23.1,0,0,1-.09-2.88A32.94,32.94,0,0,1,30.7,16Zm0,0a35.05,35.05,0,0,0-.35,5.7,22.49,22.49,0,0,0,.19,2.85,8.78,8.78,0,0,0,.3,1.37,2.08,2.08,0,0,0,.31.57c.05.11.14.1.2.15l.33.07a41.42,41.42,0,0,0,5.69.12c1.9-.05,3.81-.13,5.72-.22Q54.54,26.09,66,25.23l-.35.36c0-1.88,0-3.77-.08-5.64-.05-.94-.12-1.88-.25-2.8-.07-.46-.15-.92-.26-1.35-.07-.22-.11-.47-.18-.51a1.58,1.58,0,0,0-.47-.29,11.49,11.49,0,0,0-2.68-.57c-.93-.1-1.87-.17-2.81-.21-1.88-.08-3.76-.1-5.65-.08-3.78,0-7.56.2-11.33.45-1.89.12-3.77.26-5.65.45-.94.1-1.88.2-2.82.33-.47.07-.93.14-1.4.23A4,4,0,0,0,30.7,16Z"/><path class="cls-6" d="M6.11,188.15s46.18,7.89,85,1.13c1.12,12.95,1.69,135.15,0,136.84-41.68,9.57-86.72-.57-86.72-.57Z"/><path class="cls-2" d="M6.09,188.12c7.09,1.1,14.12,1.91,21.22,2.53s14.19,1,21.3,1.17,14.22,0,21.32-.33a203.42,203.42,0,0,0,21.19-2.36l.17,0v.17c.38,5.7.44,11.4.58,17.11l.27,17.11q.21,17.12.27,34.22t0,34.23q0,8.55-.17,17.11l-.19,8.56-.16,4.28c0,.72-.08,1.43-.13,2.15l-.1,1.07-.08.55a1.81,1.81,0,0,1-.23.67l0,.06-.11,0-5.36,1.08c-.89.17-1.78.37-2.68.53l-2.71.4c-1.8.25-3.6.55-5.41.77l-5.44.55a201.51,201.51,0,0,1-21.84.76q-10.92-.18-21.81-1.31c-7.25-.77-14.46-1.81-21.61-3.29l-.29-.06v-.29l.43-34.42L5,256.74Zm0,.06L5.51,257l-.32,34.31-.41,34.28-.28-.35c7.1,1.47,14.31,2.52,21.53,3.3s14.49,1.2,21.75,1.33a202.94,202.94,0,0,0,21.78-.72l5.42-.54c1.8-.22,3.59-.52,5.39-.77l2.7-.39c.89-.16,1.78-.35,2.67-.53l5.34-1.06-.15.08s0-.2.07-.35l.08-.52.09-1.05c.06-.71.1-1.42.14-2.13l.17-4.27.21-8.54q.15-8.57.2-17.11.12-17.12.07-34.22t-.2-34.23l-.23-17.11c-.12-5.7-.17-11.41-.54-17.09l.18.14A201.48,201.48,0,0,1,70,191.73c-7.11.35-14.23.5-21.35.28s-14.22-.6-21.31-1.23S13.1,189.33,6.14,188.18Z"/><path class="cls-7" d="M33.13,255.05c-1.37-3.6-2.74-5.18-5.84-6.19v-2.52h18v2.52c-3.75,1-3.68,2.45-2.16,6.19l5,13.25c1.15,2.95,2.08,2.95,3.24,0l2.37-6.41c3.82-10.22,2.52-12-1.94-13v-2.52H66.32v2.52c-4.39,1-5.4,2.59-6.84,6.19l-9.22,23.76h-8Z"/><path class="cls-8" d="M65.86,124.28c-8.22-14.61,18.43,15.6,19.86,56.69-.23,20.33-4.34-16-7.3-22.91s3.81,29.29.62,22.13c-4.11-47-16.6-48.76-19.8-61.93s10.6,18.45,13.79,23.6S74.08,138.88,65.86,124.28Z"/></g><g id="Red_bottle" data-name="Red bottle"><path class="cls-9" d="M90.34,112s2.26,21.12-.56,29-22.52,24.78-23.09,37.73S62.75,387.64,65,391.58s5.07,12.95,40.55,13.51,42.23-6.75,44.48-16.33,3.19-210.23-2.81-220.18-19.71-18-20.84-28.15-.56-27.31-.56-27.31A55.07,55.07,0,0,0,90.34,112Z"/><path class="cls-10" d="M80.8,153.71s-9.08,12.18-12,19-2,22.24-2.11,46c1.4,9.17,73.11,2.72,83.77,6.66a452.91,452.91,0,0,0-2.82-55.66c-4.51-7.88-18.16-18.58-20.69-25.9-.57-.84-38-.14-38-.14"/><path class="cls-11" d="M91.75,35.13c5.91-3.67,29.56-3.67,31.54,1.4s2.53,76.59,2.53,76.59S114,109.74,90.34,112C90.91,90,90.91,37.94,91.75,35.13Z"/><path class="cls-2" d="M91.72,35.1a19.69,19.69,0,0,1,6.54-2,53.92,53.92,0,0,1,6.83-.68,68.47,68.47,0,0,1,6.87.1,37.48,37.48,0,0,1,6.81,1A12.19,12.19,0,0,1,122,34.8a4,4,0,0,1,1.33,1.25c.07.14.16.28.22.42l.12.44a7.09,7.09,0,0,1,.18.87c.36,2.28.5,4.56.66,6.84.32,4.57.44,9.13.6,13.7.24,9.13.37,18.26.49,27.4q.06,6.84.2,13.7l.21,13.7v.25l-.26-.06A59.62,59.62,0,0,0,117,112c-3-.27-5.92-.39-8.88-.42s-5.92,0-8.89.17c-1.48.06-2.95.17-4.43.26l-4.43.38-.41,0V112l.3-19.21.26-19.22.34-19.22c.08-3.21.14-6.41.25-9.61.06-1.61.11-3.21.2-4.81,0-.8.07-1.6.14-2.4l.08-1.2C91.59,35.91,91.66,35.5,91.72,35.1Zm.06,0-.13,1.17-.06,1.2c0,.8-.06,1.6-.09,2.4,0,1.6-.06,3.2-.08,4.8l-.11,9.61L91.2,73.55c0,6.41-.09,12.82-.15,19.23s-.15,12.81-.34,19.22l-.4-.38,4.45-.35c1.48-.08,3-.19,4.45-.24,3-.11,6-.17,8.93-.09s6,.23,8.91.53a61.23,61.23,0,0,1,8.82,1.46l-.25.19-.09-13.7q0-6.86-.22-13.7c-.2-9.13-.45-18.26-.82-27.38-.15-4.56-.37-9.12-.61-13.68-.14-2.27-.26-4.56-.59-6.79-.06-.27-.08-.57-.16-.81l-.1-.39a2.06,2.06,0,0,0-.17-.33,3.38,3.38,0,0,0-1.14-1.08A11.67,11.67,0,0,0,118.63,34a36.7,36.7,0,0,0-6.7-1.07,65.59,65.59,0,0,0-13.63.37A19.77,19.77,0,0,0,91.78,35.15Z"/><path class="cls-12" d="M90.16,44.32c1.12-1.31,33.52-3.78,34.53-.75.94,2.82.75,10.33.75,10.33S91.84,56.34,90.53,55,89.78,45.82,90.16,44.32Z"/><path class="cls-2" d="M90.12,44.31a3.53,3.53,0,0,1,1.36-.48c.46-.1.93-.18,1.4-.26.93-.15,1.87-.28,2.81-.4,1.88-.23,3.76-.41,5.65-.57,3.77-.32,7.55-.55,11.34-.64,1.9,0,3.79-.05,5.69,0,.95,0,1.9.09,2.84.19a11.41,11.41,0,0,1,2.84.59,1.84,1.84,0,0,1,.69.43,1.74,1.74,0,0,1,.32.75,14.24,14.24,0,0,1,.28,1.42c.14,1,.22,1.9.28,2.85.12,1.9.15,3.79.12,5.69v.27l-.27,0c-7.63.6-15.26,1.11-22.9,1.41-1.92.06-3.83.11-5.74.12a38.68,38.68,0,0,1-5.78-.25l-.38-.09c-.16-.08-.35-.17-.4-.29a2.56,2.56,0,0,1-.36-.72,8.21,8.21,0,0,1-.27-1.45,21.54,21.54,0,0,1-.1-2.89A33.32,33.32,0,0,1,90.12,44.31Zm.07,0A33.76,33.76,0,0,0,89.88,50a24.48,24.48,0,0,0,.19,2.84,7.55,7.55,0,0,0,.3,1.35,1.8,1.8,0,0,0,.29.55c0,.11.12.07.17.12l.31.07a44.66,44.66,0,0,0,5.68.11c1.9,0,3.81-.13,5.72-.22,3.81-.15,7.63-.35,11.44-.58l11.44-.67-.27.29c0-1.88,0-3.77-.07-5.65,0-.94-.12-1.88-.25-2.81a10.21,10.21,0,0,0-.26-1.36c-.06-.22-.1-.47-.2-.55a1.6,1.6,0,0,0-.5-.32,11.35,11.35,0,0,0-2.71-.57c-.93-.11-1.87-.18-2.81-.22-1.88-.09-3.77-.1-5.66-.08-3.78,0-7.56.22-11.33.49-1.89.14-3.77.3-5.65.5-.94.11-1.88.22-2.81.36-.47.07-.94.15-1.4.24A4.11,4.11,0,0,0,90.19,44.34Z"/><path class="cls-10" d="M65,352.56c-.38,6.76.14,16.38,0,40.17,1.39,9.17,66.82,24,84.84-.75.42-27.22,1.83-35.1,1.13-42.42-4.51-7.89-61.9-24.45-61.9-24.45"/><path class="cls-13" d="M65.57,216.45s46.17,7.88,85,1.13c1.12,12.95,1.69,135.14,0,136.83-41.67,9.58-86.72-.56-86.72-.56Z"/><path class="cls-2" d="M65.54,216.42c7.09,1.09,14.12,1.91,21.22,2.53s14.19,1,21.3,1.17,14.23,0,21.33-.34a200.54,200.54,0,0,0,21.18-2.35l.17,0v.16c.38,5.71.44,11.41.58,17.11l.27,17.12q.21,17.1.27,34.22t0,34.23q0,8.55-.17,17.11l-.19,8.56-.16,4.28c0,.71-.08,1.43-.13,2.14l-.1,1.08L151,354a1.5,1.5,0,0,1-.23.68l0,.05-.11,0-5.36,1.07c-.89.18-1.78.37-2.68.53l-2.7.4c-1.81.26-3.61.55-5.42.78l-5.44.55a204.08,204.08,0,0,1-21.84.76q-10.92-.19-21.81-1.31c-7.24-.78-14.46-1.81-21.61-3.29l-.28-.06v-.29L64,319.42,64.48,285Zm0,.06L65,285.27l-.33,34.31-.41,34.28L64,353.5c7.09,1.48,14.3,2.52,21.52,3.3S100,358,107.24,358.14a200.29,200.29,0,0,0,21.77-.73l5.42-.54c1.8-.22,3.59-.51,5.39-.76l2.7-.4c.89-.16,1.78-.35,2.67-.52l5.34-1.07-.14.08s0-.2.07-.35l.07-.51.1-1c.05-.71.09-1.42.13-2.13l.17-4.27.21-8.55q.15-8.55.2-17.11.12-17.1.07-34.22t-.2-34.22L151,234.68c-.12-5.7-.17-11.41-.53-17.09l.17.14A204.17,204.17,0,0,1,129.4,220c-7.11.35-14.23.49-21.35.28s-14.22-.6-21.3-1.23S72.56,217.62,65.59,216.48Z"/><text class="cls-14" transform="translate(87.53 301.62)">v</text><path class="cls-15" d="M124.28,152.15c-8.22-14.6,18.43,15.61,19.86,56.69-.23,20.33-4.34-16-7.31-22.9s3.82,29.28.63,22.12c-4.11-46.95-16.61-48.75-19.8-61.92s10.6,18.44,13.79,23.59S132.5,166.75,124.28,152.15Z"/></g></svg>