<svg id="Capa_1" data-name="Capa 1" xmlns="http://www.w3.org/2000/svg" viewBox="0 0 512 512"><defs><style>.cls-1{fill:#fde7da;}</style></defs><path class="cls-1" d="M172.27,198.75a85.39,85.39,0,1,0,85.38-85.39A85.48,85.48,0,0,0,172.27,198.75Zm151.79,0a66.41,66.41,0,1,1-66.41-66.41A66.48,66.48,0,0,1,324.06,198.75Z"/><circle class="cls-1" cx="432.22" cy="100.08" r="9.49"/><path class="cls-1" d="M257.65,498.55c134.63,0,242.88-109,242.88-242.88a242.64,242.64,0,0,0-35.13-126,9.49,9.49,0,1,0-16.22,9.85,224.2,224.2,0,0,1-43,283.75,151.83,151.83,0,0,0-297,0A222.16,222.16,0,0,1,33.75,255.67c0-123.46,100.44-223.9,223.9-223.9a221.83,221.83,0,0,1,137.3,47,9.49,9.49,0,0,0,11.64-15A242.87,242.87,0,0,0,14.78,255.67C14.78,389.85,123.37,498.55,257.65,498.55Zm0-176.46a132.19,132.19,0,0,1,131.61,114.8,224.2,224.2,0,0,1-263.21,0,132.17,132.17,0,0,1,131.6-114.8Z"/></svg>