<?xml version="1.0" encoding="utf-8"?>
<!-- Generator: Adobe Illustrator 24.3.0, SVG Export Plug-In . SVG Version: 6.00 Build 0)  -->
<svg version="1.1" id="Layer_1" xmlns="http://www.w3.org/2000/svg" xmlns:xlink="http://www.w3.org/1999/xlink" x="0px" y="0px"
	 viewBox="0 0 512 512" style="enable-background:new 0 0 512 512;" xml:space="preserve">
<style type="text/css">
	.st0{fill:#FDE7DA;}
</style>
<path class="st0" d="M430.83,400.67H81.17c-23.66-0.03-42.84-19.2-42.86-42.87V141.86c0.02-23.66,19.2-42.84,42.86-42.87h349.65
	c23.66,0.03,42.84,19.2,42.86,42.87V357.8C473.67,381.47,454.49,400.64,430.83,400.67L430.83,400.67z M81.17,115.38
	c-14.62,0.02-26.47,11.86-26.48,26.48V357.8c0.01,14.62,11.86,26.47,26.48,26.48h349.65c14.62-0.02,26.47-11.86,26.48-26.48V141.86
	c-0.01-14.62-11.86-26.47-26.48-26.48L81.17,115.38z"/>
<path class="st0" d="M256,298.04c-2,0-3.93-0.73-5.42-2.05L53.15,121.72l10.84-12.29L256,278.94l192.02-169.49l10.84,12.29
	L261.43,296.01C259.93,297.33,258,298.05,256,298.04z"/>
<path class="st0" d="M48.7,374.95l132.63-151.12l12.32,10.81L61.02,385.76L48.7,374.95z"/>
<path class="st0" d="M318.77,234.48l12.32-10.81l132.63,151.12L451.4,385.6L318.77,234.48z"/>
</svg>
