<svg id="Layer_1" data-name="Layer 1" xmlns="http://www.w3.org/2000/svg" viewBox="0 0 358 358"><defs><style>.cls-1{fill:#006c68;}</style></defs><g id="new_tab" data-name="new tab"><path class="cls-1" d="M343,179V307a36,36,0,0,1-36,36H51a36,36,0,0,1-36-36h0V51A36,36,0,0,1,51,15H179a12,12,0,0,1,0,24H51A12,12,0,0,0,39,51V307a12,12,0,0,0,12,12H307a12,12,0,0,0,12-12V179a12,12,0,0,1,24,0Z"/><path class="cls-1" d="M343,27v77.84a12,12,0,1,1-24,0V56L187.48,187.48a12,12,0,0,1-17-17L302,39H253.16a12,12,0,1,1,0-24H331a11.87,11.87,0,0,1,4.4.88A12,12,0,0,1,342,22.44,12,12,0,0,1,343,27Z"/></g></svg>