<svg id="Layer_1" data-name="Layer 1" xmlns="http://www.w3.org/2000/svg" viewBox="0 0 393 393"><defs><style>.cls-1{fill:#006c68;}</style></defs><path class="cls-1" d="M371.87,0H21.49A16.47,16.47,0,0,0,6.82,8.94a16.7,16.7,0,0,0,1.3,17.37L136.48,207.13l.14.19a36.71,36.71,0,0,1,7.2,21.76V376.5A16.39,16.39,0,0,0,160.21,393a16.86,16.86,0,0,0,6.46-1.3l72.13-27.5c6.47-2,10.76-8.07,10.76-15.41V229.08a36.64,36.64,0,0,1,7.19-21.76l.14-.19L385.25,26.3a16.65,16.65,0,0,0,1.29-17.36A16.45,16.45,0,0,0,371.87,0ZM240.67,195.5a56.76,56.76,0,0,0-11.07,33.58V346.36l-65.83,25.1V229.08a56.77,56.77,0,0,0-11.08-33.58L28.07,20H365.29Z"/></svg>