<svg id="Capa_1" data-name="Capa 1" xmlns="http://www.w3.org/2000/svg" viewBox="0 0 512 512"><defs><style>.cls-1{fill:#fde7da;}</style></defs><path class="cls-1" d="M421.94,211.79V450.32H331.87V347.15a16.37,16.37,0,0,0-16.37-16.37H200.32A16.37,16.37,0,0,0,184,347.15V450.32H94.43V211.79H61.68v254.9a16.38,16.38,0,0,0,16.38,16.38H200.32a16.38,16.38,0,0,0,16.38-16.38V363.53h82.42V466.7a16.37,16.37,0,0,0,16.38,16.37H438.31a16.37,16.37,0,0,0,16.38-16.37V211.79Z"/><path class="cls-1" d="M506.82,255.51,269.37,33.35a16.37,16.37,0,0,0-22.27-.1L5.3,255.4a16.38,16.38,0,1,0,22.16,24.12L258.08,67.64,484.44,279.42a16.37,16.37,0,0,0,22.38-23.91Z"/></svg>