<svg id="_36_Knowledge" data-name="36 Knowledge" xmlns="http://www.w3.org/2000/svg" viewBox="0 0 512 512"><defs><style>.cls-1{fill:#fde7da;}</style></defs><path class="cls-1" d="M510.3,65.8,469.4,29a5.33,5.33,0,0,0-3.4-1.3H299.8a49.06,49.06,0,0,0-43.9,27.4A49.06,49.06,0,0,0,212,27.7H45.9a5,5,0,0,0-3.5,1.5L1.7,65.8A5.34,5.34,0,0,0,0,69.5V387.1a5.09,5.09,0,0,0,5,5.3H195.8A82.27,82.27,0,0,1,199,415v12.3h-5.7a5,5,0,0,0,0,10H199a17.72,17.72,0,0,0,17.7,17.3h4.9a34.77,34.77,0,0,0,68.8,0h4.9A17.72,17.72,0,0,0,313,437.3h5.7a5,5,0,0,0,0-10H313V415a88.61,88.61,0,0,1,2.9-22.6H507a5,5,0,0,0,5-5V69.5A5,5,0,0,0,510.3,65.8ZM502,374.7l-30.9-33.2V43.9L502,71.8ZM366.8,37.7h40.9V90.8l-16.8-8.3a8.27,8.27,0,0,0-7.2,0l-16.8,8.2v-53Zm-66.9,0h56.9V72.1H288a5,5,0,0,0,0,10h68.7V93.7a8,8,0,0,0,3.9,7,8.15,8.15,0,0,0,8,.4L387.2,92c18.5,8.8,18.9,9.9,22.2,9.9a8,8,0,0,0,4.4-1.3,8.23,8.23,0,0,0,3.9-7V82.1H434a5,5,0,0,0,0-10H417.6V37.7H461V338.5H348a105.11,105.11,0,0,0,11-62.3c-6.3-47.8-46.9-87.5-98.1-89.9V76.6A39.09,39.09,0,0,1,299.9,37.7ZM326,353.1A91.26,91.26,0,0,0,303.2,410H279.7V313.8h11.5a21.55,21.55,0,1,0-21.5-21.6v11.5H242.4V292.1a21.5,21.5,0,1,0-21.5,21.6h11.5V410H208.9c-1.2-20.9-9.8-41.6-24.5-58.8a94.08,94.08,0,0,1,8.9-131c56.5-50.7,146.3-16.3,156,57.3A95.41,95.41,0,0,1,326,353.1ZM242.4,410V313.8h27.3V410Zm-10-106.2H220.9a11.55,11.55,0,1,1,11.5-11.6Zm47.2,0V292.3a11.5,11.5,0,1,1,11.5,11.5ZM251,76.6V186.3a102.44,102.44,0,0,0-64.4,26.5,104.05,104.05,0,0,0-22.7,125.8H50.9V37.7H212.1A38.88,38.88,0,0,1,251,76.6ZM40.9,43.9V341.5L10,374.7V71.8ZM16.5,382.4l31.6-33.9H169.8c7.4,10.9,15.1,16.7,22.4,33.9ZM256,474.3a24.8,24.8,0,0,1-24.3-19.7h48.6A25,25,0,0,1,256,474.3Zm47-37.4a7.7,7.7,0,0,1-7.7,7.7H216.7a7.7,7.7,0,0,1-7.7-7.7V420h94Zm39.2-88.4H463.9l31.6,33.9H319.3c7.1-17.4,14.5-21.5,22.9-33.9Z"/><path class="cls-1" d="M288,126.5H434a5,5,0,0,0,0-10H288a5,5,0,0,0-5,5A5,5,0,0,0,288,126.5Z"/><path class="cls-1" d="M288,170.9H434a5,5,0,0,0,0-10H288a5,5,0,0,0-5,5A5,5,0,0,0,288,170.9Z"/><path class="cls-1" d="M125.4,82.1h51a5,5,0,0,0,0-10h-51a5,5,0,0,0-5,5A5,5,0,0,0,125.4,82.1Z"/><path class="cls-1" d="M78,126.5H224a5,5,0,0,0,0-10H78a5,5,0,0,0,0,10Z"/><path class="cls-1" d="M78,170.9H224a5,5,0,0,0,0-10H78a5,5,0,0,0,0,10Z"/><path class="cls-1" d="M434,205.3H353a5,5,0,0,0,0,10h81a5,5,0,0,0,0-10Z"/><path class="cls-1" d="M159.2,205.3H78a5,5,0,0,0,0,10h81.2a5,5,0,0,0,0-10Z"/><path class="cls-1" d="M434,249.7H376.6a5,5,0,0,0,0,10H434a5,5,0,0,0,0-10Z"/><path class="cls-1" d="M135.4,249.7H78a5,5,0,0,0,0,10h57.4a5,5,0,0,0,5-5,5,5,0,0,0-5-5Z"/><path class="cls-1" d="M434,294.1H381.4a5,5,0,0,0,0,10H434a5,5,0,0,0,0-10Z"/><path class="cls-1" d="M130.6,294.1H78a5,5,0,0,0,0,10h52.6a5,5,0,0,0,5-5A5,5,0,0,0,130.6,294.1Z"/></svg>