<?xml version="1.0" encoding="utf-8"?>
<!-- Generator: Adobe Illustrator 24.3.0, SVG Export Plug-In . SVG Version: 6.00 Build 0)  -->
<svg version="1.1" id="Capa_1" xmlns="http://www.w3.org/2000/svg" xmlns:xlink="http://www.w3.org/1999/xlink" x="0px" y="0px"
	 viewBox="0 0 354.33 512" style="enable-background:new 0 0 354.33 512;" xml:space="preserve">
<style type="text/css">
	.st0{fill:#232020;}
	.st1{fill:#F2E184;}
</style>
<g>
	<g>
		<path class="st0" d="M177.16,0C83.06,0,6.5,76.57,6.5,170.67c0,45.29,28.37,83.41,53.4,117.08c4.29,5.76,8.53,11.46,12.59,17.13
			c7.79,10.86,13.08,22.95,16.17,36.95c5.5,24.83,26.39,42.18,50.79,42.18h75.44c24.4,0,45.29-17.32,50.79-42.18
			c3.09-13.99,8.38-26.07,16.17-36.95c4.05-5.67,8.3-11.37,12.59-17.13c25.02-33.66,53.4-71.79,53.4-117.08
			C347.83,76.57,271.26,0,177.16,0z M277.3,275.01c-4.37,5.87-8.68,11.67-12.82,17.45c-9.37,13.1-15.98,28.14-19.65,44.76
			c-3.31,15-15.64,25.45-29.95,25.45h-75.43c-14.31,0-26.64-10.45-29.95-25.45c-3.67-16.64-10.3-31.68-19.65-44.76
			c-4.14-5.76-8.45-11.58-12.82-17.45c-24.19-32.51-49.2-66.11-49.2-104.34c0-82.32,66.99-149.33,149.33-149.33
			S326.5,88.34,326.5,170.67C326.5,208.9,301.49,242.5,277.3,275.01z"/>
	</g>
</g>
<g>
	<g>
		<path class="st0" d="M230.5,405.33H123.83c-5.89,0-10.67,4.78-10.67,10.67s4.78,10.67,10.67,10.67H230.5
			c5.89,0,10.67-4.78,10.67-10.67C241.16,410.11,236.38,405.33,230.5,405.33z"/>
	</g>
</g>
<g>
	<g>
		<path class="st0" d="M230.5,448H123.83c-5.89,0-10.67,4.78-10.67,10.67s4.78,10.67,10.67,10.67H230.5
			c5.89,0,10.67-4.78,10.67-10.67S236.38,448,230.5,448z"/>
	</g>
</g>
<g>
	<g>
		<path class="st0" d="M209.16,490.67h-64c-5.89,0-10.67,4.78-10.67,10.67S139.28,512,145.16,512h64c5.89,0,10.67-4.78,10.67-10.67
			C219.83,495.45,215.05,490.67,209.16,490.67z"/>
	</g>
</g>
</svg>
