<?xml version="1.0" encoding="utf-8"?>
<!-- Generator: Adobe Illustrator 24.3.0, SVG Export Plug-In . SVG Version: 6.00 Build 0)  -->
<svg version="1.1" id="Capa_1" xmlns="http://www.w3.org/2000/svg" xmlns:xlink="http://www.w3.org/1999/xlink" x="0px" y="0px"
	 viewBox="0 0 349.82 512" style="enable-background:new 0 0 349.82 512;" xml:space="preserve">
<style type="text/css">
	.st0{fill:#232020;}
	.st1{fill:#F2E184;}
</style>
<g>
	<g>
		<path class="st0" d="M174.92,0C80.81,0,4.25,76.57,4.25,170.67c0,45.29,28.37,83.41,53.4,117.07c4.28,5.76,8.53,11.46,12.58,17.14
			c7.79,10.85,13.08,22.95,16.17,36.94c5.51,24.84,26.39,42.18,50.8,42.18h75.43c24.41,0,45.29-17.32,50.8-42.18
			c3.09-13.99,8.38-26.06,16.17-36.94c4.05-5.68,8.3-11.38,12.59-17.14c25.02-33.66,53.39-71.78,53.39-117.07
			C345.58,76.57,269.02,0,174.92,0z M275.05,275.01c-4.37,5.87-8.68,11.67-12.82,17.45c-9.36,13.1-15.98,28.14-19.64,44.76
			c-3.31,14.99-15.64,25.45-29.96,25.45H137.2c-14.32,0-26.65-10.46-29.95-25.45c-3.67-16.64-10.31-31.68-19.65-44.76
			c-4.14-5.76-8.45-11.58-12.82-17.45c-24.19-32.51-49.2-66.11-49.2-104.34c0-82.33,66.99-149.34,149.34-149.34
			c82.34,0,149.33,67.01,149.33,149.34C324.25,208.9,299.25,242.5,275.05,275.01z"/>
		<path class="st1" d="M324.25,170.67c0,38.23-25,71.83-49.2,104.34c-4.37,5.87-8.68,11.67-12.82,17.45
			c-9.36,13.1-15.98,28.14-19.64,44.76c-3.31,14.99-15.64,25.45-29.96,25.45H137.2c-14.32,0-26.65-10.46-29.95-25.45
			c-3.67-16.64-10.31-31.68-19.65-44.76c-4.14-5.76-8.45-11.58-12.82-17.45c-24.19-32.51-49.2-66.11-49.2-104.34
			c0-82.33,66.99-149.34,149.34-149.34C257.26,21.33,324.25,88.34,324.25,170.67z"/>
	</g>
</g>
<g>
	<g>
		<path class="st0" d="M228.24,405.33H121.58c-5.89,0-10.67,4.78-10.67,10.67s4.78,10.67,10.67,10.67h106.67
			c5.89,0,10.67-4.78,10.67-10.67C238.91,410.11,234.13,405.33,228.24,405.33z"/>
	</g>
</g>
<g>
	<g>
		<path class="st0" d="M228.24,448H121.58c-5.89,0-10.67,4.78-10.67,10.67s4.78,10.67,10.67,10.67h106.67
			c5.89,0,10.67-4.78,10.67-10.67S234.13,448,228.24,448z"/>
	</g>
</g>
<g>
	<g>
		<path class="st0" d="M206.91,490.67h-64c-5.89,0-10.67,4.78-10.67,10.67S137.02,512,142.91,512h64c5.89,0,10.67-4.78,10.67-10.67
			C217.58,495.45,212.8,490.67,206.91,490.67z"/>
	</g>
</g>
</svg>
