<svg id="Layer_1" data-name="Layer 1" xmlns="http://www.w3.org/2000/svg" viewBox="0 0 312 236"><defs><style>.cls-1{fill:#006c68;}</style></defs><path class="cls-1" d="M60.28,227.38A53.92,53.92,0,0,1,46.2,225.5a53.69,53.69,0,0,1-12.75-98.37L107.1,84.8a53.76,53.76,0,0,1,73.29,19.79A11.21,11.21,0,1,1,161,115.76a31.3,31.3,0,0,0-42.69-11.53L44.62,146.57a31.27,31.27,0,0,0,31.15,54.22l73.65-42.33a11.21,11.21,0,0,1,11.17,19.43L86.94,220.22A53.33,53.33,0,0,1,60.28,227.38Z"/><path class="cls-1" d="M183.59,156.51a53.85,53.85,0,0,1-46.63-27,11.21,11.21,0,0,1,19.43-11.17,31.3,31.3,0,0,0,42.69,11.53l73.65-42.32a31.27,31.27,0,1,0-31.16-54.22L167.92,75.69a11.21,11.21,0,1,1-11.17-19.43L230.4,13.93A53.68,53.68,0,0,1,283.9,107l-73.65,42.33A53.36,53.36,0,0,1,183.59,156.51Z"/></svg>