<svg id="Layer_1" data-name="Layer 1" xmlns="http://www.w3.org/2000/svg" viewBox="0 0 522.72 531.16"><defs><style>.cls-1{fill:#232020;}.cls-2{fill:#006c68;}</style></defs><path class="cls-1" d="M418.45,141.85a9.86,9.86,0,0,0-7.24-4.11,10.35,10.35,0,0,0-7.81,2.84L155.51,388.47a9.88,9.88,0,0,0,1.25,15,186.36,186.36,0,0,0,108.72,34.85c103.55,0,187.8-84.25,187.8-187.8A186.37,186.37,0,0,0,418.45,141.85Zm-153,276.73a166.41,166.41,0,0,1-87.43-24.69L408.82,163.12a166.41,166.41,0,0,1,24.69,87.43C433.51,343.21,358.13,418.58,265.48,418.58Z"/><path class="cls-1" d="M265.48,3.45c-136.26,0-247.1,110.84-247.1,247.1s110.84,247.1,247.1,247.1,247.1-110.84,247.1-247.1S401.74,3.45,265.48,3.45Zm0,474.43c-125.35,0-227.33-102-227.33-227.33s102-227.33,227.33-227.33,227.33,102,227.33,227.33S390.83,477.88,265.48,477.88Z"/><path class="cls-1" d="M378.32,104.82a10,10,0,0,0-4.11-7.21A186.51,186.51,0,0,0,265.48,62.76C161.94,62.76,77.69,147,77.69,250.55a186.38,186.38,0,0,0,34.85,108.71,9.85,9.85,0,0,0,7.21,4.11c.28,0,.55,0,.83,0a10,10,0,0,0,7-2.89L375.45,112.65A9.91,9.91,0,0,0,378.32,104.82ZM122.14,338a166.42,166.42,0,0,1-24.69-87.44c0-92.63,75.38-168,168-168a166.48,166.48,0,0,1,87.46,24.7Z"/><path class="cls-2" d="M408.41,166.72l-30.67,30.5L298.53,308.81a60.11,60.11,0,0,0-11.72,35.56V468.55L217.1,495.12V358.41L196,379.08V500.46a17.34,17.34,0,0,0,17.35,17.46,17.86,17.86,0,0,0,6.85-1.37l76.37-29.12c6.85-2.08,11.39-8.54,11.39-16.32V344.37a38.81,38.81,0,0,1,7.62-23.05l.14-.19,100.11-141C411.86,172.33,408.41,166.72,408.41,166.72Z"/><path class="cls-2" d="M181.42,275.06l-108-152.12H333.51l15.73-15.41-10.58-5.72H66.46a17.44,17.44,0,0,0-15.53,9.47,17.66,17.66,0,0,0,1.37,18.39l114,160.55Z"/></svg>