<svg id="Layer_1" data-name="Layer 1" xmlns="http://www.w3.org/2000/svg" viewBox="0 0 522.72 531.16"><defs><style>.cls-1{fill:#006c68;}.cls-2{fill:#232020;}</style></defs><path class="cls-1" d="M436.73,102H86.35A16.48,16.48,0,0,0,71.68,111,16.7,16.7,0,0,0,73,128.33L201.34,309.16l.13.18a36.6,36.6,0,0,1,7.2,21.76V478.53A16.39,16.39,0,0,0,225.07,495a16.85,16.85,0,0,0,6.46-1.29l72.13-27.51c6.47-2,10.76-8.07,10.76-15.41V331.1a36.68,36.68,0,0,1,7.19-21.76l.14-.18L450.11,128.33A16.69,16.69,0,0,0,451.4,111,16.47,16.47,0,0,0,436.73,102Zm-131.2,195.5a56.78,56.78,0,0,0-11.07,33.58V448.39l-65.84,25.1V331.1a56.78,56.78,0,0,0-11.07-33.58L92.93,122H430.15Z"/><path class="cls-2" d="M287.57,243.44,471.28,59.73a16.56,16.56,0,1,0-23.42-23.42L264.15,220,80.44,36.31A16.56,16.56,0,0,0,57,59.73L240.73,243.44,57,427.15a16.56,16.56,0,0,0,23.42,23.42L264.15,266.86,447.86,450.57a16.56,16.56,0,1,0,23.42-23.42Z"/></svg>