<svg id="Capa_1" data-name="Capa 1" xmlns="http://www.w3.org/2000/svg" viewBox="0 0 480 480"><defs><style>.cls-1{fill:#fde7da;}</style></defs><path class="cls-1" d="M296,280h-8.8a7.87,7.87,0,0,1-7.41-5.17c-1-2.56-2-5.06-3.15-7.54a7.9,7.9,0,0,1,1.6-8.93l6.27-6.28a24,24,0,0,0,0-33.91l-22.61-22.61a24.05,24.05,0,0,0-33.92,0l-6.27,6.26a7.9,7.9,0,0,1-8.93,1.6c-2.48-1.12-5-2.17-7.55-3.2A7.87,7.87,0,0,1,200,192.8V184a24,24,0,0,0-24-24H144a24,24,0,0,0-24,24v8.8a7.87,7.87,0,0,1-5.17,7.41c-2.56,1-5.06,2-7.54,3.15a7.9,7.9,0,0,1-8.93-1.6l-6.28-6.27a24.06,24.06,0,0,0-33.91,0L35.56,218.17a24.05,24.05,0,0,0,0,33.92l6.26,6.27a7.86,7.86,0,0,1,1.6,8.93c-1.12,2.48-2.17,5-3.16,7.55A7.85,7.85,0,0,1,32.8,280H24A24,24,0,0,0,0,304v32a24,24,0,0,0,24,24h8.8a7.87,7.87,0,0,1,7.41,5.17c1,2.56,2,5.06,3.15,7.54a7.9,7.9,0,0,1-1.6,8.93l-6.27,6.28a24.06,24.06,0,0,0,0,33.91L58.1,444.44a24.05,24.05,0,0,0,33.92,0l6.27-6.26a7.9,7.9,0,0,1,8.93-1.6c2.48,1.12,5,2.17,7.55,3.2A7.85,7.85,0,0,1,120,447.2V456a24,24,0,0,0,24,24h32a24,24,0,0,0,24-24v-8.8a7.87,7.87,0,0,1,5.17-7.41c2.56-1,5.06-2,7.54-3.15a7.91,7.91,0,0,1,8.93,1.6l6.28,6.27a24.06,24.06,0,0,0,33.91,0l22.61-22.61a24.05,24.05,0,0,0,0-33.92l-6.26-6.27a7.86,7.86,0,0,1-1.6-8.93c1.12-2.48,2.17-5,3.2-7.55A7.86,7.86,0,0,1,287.2,360H296a24,24,0,0,0,24-24V304A24,24,0,0,0,296,280Zm8,56a8,8,0,0,1-8,8h-8.8a24.09,24.09,0,0,0-22.4,15.47c-.85,2.24-1.76,4.45-2.75,6.62a24.06,24.06,0,0,0,4.8,26.85l6.25,6.26a8,8,0,0,1,0,11.31h0l-22.6,22.61a8,8,0,0,1-11.32,0l-6.27-6.27a24.05,24.05,0,0,0-26.85-4.8c-2.16,1-4.37,1.91-6.6,2.76A24.06,24.06,0,0,0,184,447.2V456a8,8,0,0,1-8,8H144a8,8,0,0,1-8-8v-8.8a24.09,24.09,0,0,0-15.47-22.4c-2.24-.85-4.45-1.76-6.62-2.75a24.09,24.09,0,0,0-26.85,4.8L80.8,433.1a8,8,0,0,1-11.31,0h0L46.87,410.52a8,8,0,0,1,0-11.31l6.27-6.27a24.09,24.09,0,0,0,4.8-26.85c-1-2.17-1.91-4.38-2.76-6.6A24.06,24.06,0,0,0,32.8,344H24a8,8,0,0,1-8-8V304a8,8,0,0,1,8-8h8.8a24.09,24.09,0,0,0,22.4-15.47c.85-2.24,1.76-4.45,2.75-6.62a24.07,24.07,0,0,0-4.8-26.85l-6.29-6.26a8,8,0,0,1,0-11.31h0l22.61-22.61a8,8,0,0,1,11.31,0l6.28,6.27a24,24,0,0,0,26.84,4.8c2.17-1,4.38-1.91,6.6-2.76A24,24,0,0,0,136,192.8V184a8,8,0,0,1,8-8h32a8,8,0,0,1,8,8v8.8a24.08,24.08,0,0,0,15.47,22.4c2.24.85,4.45,1.76,6.62,2.75a24.05,24.05,0,0,0,26.85-4.8l6.26-6.25a8,8,0,0,1,11.32,0l22.61,22.6a8,8,0,0,1,0,11.32l-6.27,6.27a24.09,24.09,0,0,0-4.8,26.85c1,2.16,1.91,4.37,2.76,6.6A24.06,24.06,0,0,0,287.2,296H296a8,8,0,0,1,8,8v32Z"/><path class="cls-1" d="M231.84,316.8c-.08-1.92-.22-3.83-.45-5.74s-.56-4.08-1-6.07c-.28-1.3-.65-2.59-1-3.89-.45-1.64-.95-3.27-1.51-4.87-.4-1.11-.8-2.21-1.22-3.31a72,72,0,0,0-3.53-7.49c-.1-.18-.17-.38-.27-.57a70.8,70.8,0,0,0-7.2-10.48c-.23-.29-.5-.56-.74-.84q-1.65-2-3.43-3.78c-.62-.65-1.28-1.26-1.93-1.88-.8-.74-1.6-1.48-2.4-2.18-1-.85-2-1.66-3-2.45l-1.31-1A71.49,71.49,0,0,0,160,248c-.8,0-1.6.12-2.4.15-1.7,0-3.42.15-5.14.32-.9.1-1.81.2-2.72.33a73.38,73.38,0,0,0-7.75,1.45,72,72,0,0,0,.06,139.51,2,2,0,0,1,.4.07,74.58,74.58,0,0,0,8.38,1.6c1.87.23,3.73.28,5.6.37,1.25.06,2.4.25,3.71.25,2.28,0,4.64-.15,7.06-.39.26,0,.51-.08.8-.11,1.94-.21,3.91-.5,5.92-.9.8-.15,1.54-.35,2.31-.53,1.41-.33,2.81-.67,4.25-1.1,1.12-.33,2.21-.72,3.3-1.11s2.24-.8,3.37-1.23,2.09-.93,3.12-1.41c1.35-.61,2.68-1.22,4-1.94h0a94.66,94.66,0,0,0,20.5-14.81,24.89,24.89,0,0,0,4.29-5.25,85.25,85.25,0,0,0,12-32.88c.22-1.54.42-3.09.54-4.66s.2-2.89.23-4.33c0-.46.06-.89.06-1.34C232,318.93,231.89,317.89,231.84,316.8ZM215.9,322c0,.66-.06,1.33-.1,2-.14,1.94-.39,3.88-.72,5.82A56.14,56.14,0,0,1,187,369c-1,.52-2,1-2.95,1.46l-.66.32a57.71,57.71,0,0,1-14.59,4.41l-1.07.17c-1,.14-2,.26-3,.35-1.29.11-2.59.18-3.91.2h-1.67a56.38,56.38,0,0,1-5.66-.35l-1-.11a60.27,60.27,0,0,1-6.54-1.23,56,56,0,0,1-.06-108.49h0A58,58,0,0,1,160,264a55.86,55.86,0,0,1,6.84.46c.61.08,1.21.19,1.81.28,1.73.27,3.44.61,5.13,1l1.64.43a56.62,56.62,0,0,1,12.2,5.13c.62.36,1.22.74,1.83,1.12,1.26.8,2.49,1.6,3.69,2.51.65.47,1.31.93,1.93,1.44a58.85,58.85,0,0,1,4.51,4c.56.57,1.08,1.21,1.64,1.81.92,1,1.81,2,2.67,3.1.59.74,1.16,1.51,1.72,2.29.8,1.15,1.6,2.35,2.32,3.57l1.21,2a55.76,55.76,0,0,1,2.75,5.86c.32.8.59,1.6.88,2.4.52,1.47,1,3,1.36,4.47.2.8.42,1.51.59,2.28a55.9,55.9,0,0,1,1,6.56c0,.58,0,1.17.08,1.76A53.82,53.82,0,0,1,215.9,322Z"/><path class="cls-1" d="M456,168H430.84a7.81,7.81,0,0,1-7.46-5.25,166.74,166.74,0,0,0-9-21.69,7.82,7.82,0,0,1,1.54-9l17.84-17.86a24,24,0,0,0,0-33.93l-34-34a24,24,0,0,0-33.93,0L348,64.1a7.82,7.82,0,0,1-9,1.55,165.19,165.19,0,0,0-21.7-9A7.82,7.82,0,0,1,312,49.16V24A24,24,0,0,0,288,0H240a24,24,0,0,0-24,24V49.16a7.82,7.82,0,0,1-5.25,7.46,167,167,0,0,0-21.69,9,7.82,7.82,0,0,1-9-1.54L162.17,46.26a24.06,24.06,0,0,0-33.93,0l-33.95,34a24,24,0,0,0,0,33.93l26.23,26.28a8,8,0,0,0,11.33-11.29L105.6,102.86a8,8,0,0,1,0-11.31l34-33.95a8,8,0,0,1,11.31,0l17.88,17.84A23.78,23.78,0,0,0,196.22,80a152.62,152.62,0,0,1,19.61-8.15A23.8,23.8,0,0,0,232,49.16V24a8,8,0,0,1,8-8h48a8,8,0,0,1,8,8V49.16a23.78,23.78,0,0,0,16.17,22.63A150.68,150.68,0,0,1,331.78,80a23.83,23.83,0,0,0,27.48-4.52L377.14,57.6a8,8,0,0,1,11.31,0l33.95,34a8,8,0,0,1,0,11.3l-17.84,17.88a23.79,23.79,0,0,0-4.51,27.48,151.21,151.21,0,0,1,8.15,19.61A23.8,23.8,0,0,0,430.84,184H456a8,8,0,0,1,8,8v48a8,8,0,0,1-8,8H430.84a23.78,23.78,0,0,0-22.63,16.17,150.68,150.68,0,0,1-8.16,19.61,23.79,23.79,0,0,0,4.52,27.48l17.84,17.88a8,8,0,0,1,0,11.31l-34,33.95a8,8,0,0,1-11.3,0l-26.29-26.23a8,8,0,1,0-11.49,11.13l.19.2,26.28,26.23a24,24,0,0,0,33.93,0l33.95-34a24,24,0,0,0,0-33.93L415.9,300a7.85,7.85,0,0,1-1.55-9,165.19,165.19,0,0,0,9-21.7,7.82,7.82,0,0,1,7.46-5.28H456a24,24,0,0,0,24-24V192A24,24,0,0,0,456,168Z"/><path class="cls-1" d="M337.54,142.46a104.12,104.12,0,0,0-147.08,0,8,8,0,0,0,11.32,11.32A88,88,0,1,1,327.06,277.39l-.84.83a8,8,0,0,0,11.12,11.51l.2-.19A104.12,104.12,0,0,0,337.54,142.46Z"/></svg>