<svg id="Layer_1" data-name="Layer 1" xmlns="http://www.w3.org/2000/svg" viewBox="0 0 119.2 114.32"><defs><style>.cls-1{fill:#3d2b56;}</style></defs><g id="CMEjVH.tif"><path class="cls-1" d="M4.41,52.17c0-4.62,2-7.43,5.49-8.85l22.9-9.21Q68.55,19.74,104.3,5.35a3.29,3.29,0,0,1,3.82.47,3.16,3.16,0,0,1,.59,3.8L70.73,104c-1.37,3.39-3.78,5.41-7.48,5.56-3.93.16-6.57-1.78-8.17-5.3Q48.22,89.14,41.31,74a3,3,0,0,0-1.4-1.33Q24.73,65.72,9.5,58.83C6.21,57.33,4.51,54.75,4.41,52.17ZM97,21.82l-.18-.09c-.23.21-.48.41-.7.63Q71.94,46.53,47.77,70.67a1.3,1.3,0,0,0-.26,1.77c2.27,4.91,4.48,9.84,6.71,14.77s4.44,9.77,6.67,14.66c.63,1.38,1.85,1.95,2.9,1.22a4.08,4.08,0,0,0,1.28-1.81Q80.86,62.1,96.61,22.91C96.75,22.55,96.86,22.18,97,21.82ZM92.54,17c-.69.22-1,.3-1.35.43L12.49,49.05c-1,.39-1.74.82-1.79,2s.74,1.76,1.72,2.21Q27,59.85,41.52,66.49a1.44,1.44,0,0,0,1.95-.34q24-24.08,48.05-48.09C91.79,17.79,92,17.5,92.54,17Z"/></g></svg>