<svg id="Layer_1" data-name="Layer 1" xmlns="http://www.w3.org/2000/svg" viewBox="0 0 119.2 114.32"><defs><style>.cls-1{fill:#3d2b56;}.cls-2{fill:#fff;}</style></defs><g id="_82ezKU" data-name="82ezKU"><path class="cls-1" d="M74,32c3.29-3.2,6.79-6.22,9.8-9.66,2.18-2.49,3.8-2.35,6.41-.69,18.37,11.69,26,35.48,17.44,57.62A73.41,73.41,0,0,1,95.92,98.61c-4.55,5.59-9.57,4.67-14.43-.64C76.24,92.23,70.4,87.36,61.87,87.71a13.51,13.51,0,0,0-10.54,5.11,47.65,47.65,0,0,1-5.07,5.71c-7.15,6.39-14.71,6-20.66-1.47C16.67,85.8,12.47,72.69,13.94,58.42c3.63-35.16,37.2-50.2,64.84-41.93.38.12.74.32,1.34.58L71.3,26.54l.17-.14c-1.52,1.12-3.15,2.11-4.55,3.37-4.41,3.94-8.74,8-13.33,12.21-1.42-7.9-4.67-11.24-10.19-11-4.4.21-8.56,3.76-8.62,8.23a11.19,11.19,0,0,0,2.43,6.9c1.53,1.79,4.26,2.56,5.41,3.19C40,52.56,36.75,56,34.23,59.83c-1.16,1.78-1.66,3.27-4.17,3.77-4.2.83-6.68,4.73-6.53,9.05a9.26,9.26,0,0,0,7.25,8.64c4,.86,9.28-1.16,9.83-5.12.76-5.47,4.31-8.31,7.6-11.72a23.19,23.19,0,0,0,2.18-3.4Q54,55.74,57.57,50.47c1-1.44,2-2.83,3.08-4.24l-.14.14c1.33-1.12,2.7-2.19,4-3.37,3-2.81,6-5.68,9-8.53a28.23,28.23,0,0,0-1.31,3.32,9.15,9.15,0,0,0,5.53,10.93,9.31,9.31,0,0,0,11.48-4.49,9,9,0,0,0-3.28-11.78c-4.32-2.7-8.24-1.61-11.89,1.47l.15-2.11ZM101.3,72.37a9.11,9.11,0,1,0-18.21-.2,9.11,9.11,0,1,0,18.21.2Z"/><path class="cls-1" d="M71.3,26.54c5.39-4.68,10.8-9.33,16.14-14.06C91,9.36,94.38,6.13,97.84,3l1,.91a36.86,36.86,0,0,1-2.63,3.57c-6.45,6.9-13,13.74-19.43,20.65A36.53,36.53,0,0,0,74,32l.14-.17L60.51,46.37l.14-.14L51.57,54.6l-5.31-4c1.52-1.44,2.6-2.45,3.66-3.47L71.47,26.4Z"/><path class="cls-2" d="M74,33.92a4.59,4.59,0,0,1-.53.55c-3,2.85-6,5.72-9,8.53-1.27,1.18-2.64,2.25-4,3.37L74.17,31.81Z"/><path class="cls-1" d="M32.07,70.05A65.65,65.65,0,0,1,34.73,62c1.3-2.77,2.7-5.7,4.81-7.82,4.14-4.17,7.1-3.63,10.24,1.36a4.31,4.31,0,0,1,.11,3.19C47.38,66.52,40.32,70.9,32.07,70.05Z"/></g></svg>