<svg id="Layer_1" data-name="Layer 1" xmlns="http://www.w3.org/2000/svg" viewBox="0 0 119.2 114.32"><defs><style>.cls-1{fill:#006c68;}</style></defs><g id="_8oDfFe" data-name="8oDfFe"><path class="cls-1" d="M93.26,65l-8.43.76c4.84-7.61,9.62-15.11,14.45-22.69,6.11,6.57,12.17,13.09,18.32,19.72l-7.72.7c-.12.8-.22,1.61-.35,2.41a47.67,47.67,0,0,1-7.59,19.58,49,49,0,0,1-17.86,16.19A48.75,48.75,0,0,1,26,92.23,48.15,48.15,0,0,1,13.71,69.6c-.16-.71-.28-1.42-.43-2.13-.1-.46,0-.81.51-.92s.72.19.89.6c.85,2.06,1.58,4.18,2.59,6.16A41,41,0,0,0,48.45,95.1,41,41,0,0,0,86.07,79.58,41.6,41.6,0,0,0,93,66.12C93.1,65.8,93.16,65.46,93.26,65Z"/><path class="cls-1" d="M22.73,67.45,4.41,47.73l7.72-.7c.12-.84.23-1.68.36-2.52a49.16,49.16,0,0,1,37.07-40,48.93,48.93,0,0,1,41.1,9,48.32,48.32,0,0,1,17.21,25.79c.35,1.24.57,2.52.85,3.79.1.46,0,.86-.5,1s-.75-.21-.89-.66a40.07,40.07,0,0,0-7.47-13.49,40.57,40.57,0,0,0-22-13.61A41.09,41.09,0,0,0,39,27.46,40.46,40.46,0,0,0,28.81,45.19a2.65,2.65,0,0,0,0,.32l8.42-.76Z"/></g></svg>