<svg id="Layer_1" data-name="Layer 1" xmlns="http://www.w3.org/2000/svg" viewBox="0 0 164.46 157.73"><defs><style>.cls-1{fill:#fff;}.cls-2{fill:#fdcf00;}.cls-3{fill:#345323;}.cls-4{fill:#fdd900;}.cls-5{fill:#dfa406;}.cls-6{fill:#fdd714;}.cls-7{fill:#253c1c;}.cls-8{fill:#080a07;}.cls-9{fill:#142015;}.cls-10{fill:#f9ef88;}.cls-11{fill:#fcec44;}.cls-12{fill:#4c7032;}.cls-13{fill:#729d4d;}.cls-14{fill:#f8cd02;}.cls-15{fill:#7f7846;}.cls-16{fill:#111223;}</style></defs><g id="vDMxSN"><path class="cls-1" d="M74.8,140.7l2,.14c6.38.3,12.68-.05,18.56-2.84a4.31,4.31,0,0,0,2.54-4.87c1-13.37.28-26.74.08-40.1,1.24-10.25-1.67-19.66-5.85-28.8L88.45,54.3a133.17,133.17,0,0,1-4.9-25.72c-.25-2.42-.67-4.84,1-7,.7-.89,1.19-2.29.35-3.3-2.2-2.66-1.5-5.77-1.45-8.72,0-2.32-.77-3.53-3-3.75-2.52-1-5.13-.36-7.7-.43l-.61.17c-2.59.58-3.38,2.2-3.23,4.79s.58,5.49-1.35,7.93c-.78,1-.32,2.21.39,3.22.42,1.17,1.41,2.12,1.33,3.48-.94,10.38-2.48,20.65-5.65,30.62a38.47,38.47,0,0,0-2.9,7.91,71.38,71.38,0,0,0-4.5,11.92l.15-.09c-.64.4-.51,1-.51,1.63a11,11,0,0,0-1.26,5A65.67,65.67,0,0,0,54.51,93l0,.7c-.14,13.2-.85,26.4.06,39.6-.21,3.23,1.65,4.85,4.46,5.72a40.47,40.47,0,0,0,9.53,1.63C70.62,140.85,72.71,141.35,74.8,140.7Z"/><path class="cls-2" d="M54.54,133.31c-.91-13.2-.2-26.4-.06-39.6l.71.18c.55.7,1.33.56,2.07.57h0c.85,1.06,2,.61,3.07.6.85-.23,1.92.57,2.58-.55l4.24-2.4,2.61-.51,1.49-.44a18.29,18.29,0,0,1,6.39-.09c.67.76,1.54.54,2.38.48,2.31-.06,4,1.39,5.94,2.31l.82,1.18c0,1.66-.4,3.38.65,4.89l-2.6.22c-1.19,0-2.73-.65-3,1.39-3.89-1.44-7.92-.65-11.89-.71-.88-1.07-1.93-.89-3.08-.45.54,1.68,1.79,1.89,3.24,1.72H82.32c.82,0,1.68.27,2.29-.56l4.17-.19c-2.56.78-2.82,2.62-2.79,5,.09,7.73.4,15.48-.64,23.18-.62,1.14-2.3.26-2.86,1.51l-14,0c-.85-1.05-1.85-.9-3-.48.82,1.3,1.7,2.1,3.18,1.74l14.38,0c2.39.28,4.45-1.91,7-.83.48.2,1.57-.85.85-2-.18-8.47-1.09-16.92-.71-25.41,0-1.16.18-2.43-1.46-2.71,1.24-.78,2.67-.51,4-.72l1.54.12.06,28.06c-1,.17-2,1-1.39,1.75.93,1.1,1.33-.68,2.08-1a5.9,5.9,0,0,1-.61,3.6l-.29,0c-.88-.05-1.8-.31-2.51.5l-2.43.21c-1.09,0-2.23-.44-3.18.45l-6.09.23-1.5.14a19,19,0,0,1-6.56.16l-1.57-.3-6.09-.23c-1.11-1-2.42-.45-3.65-.5l-2-.16c-.91-.94-2-.53-3.09-.5Zm3.49-3c.65.94,1.33.86,2,.06l2.06.63c.47.58,1.17,1.05,1.64.33.34-.51-.21-1.26-.79-1.7V101.5c1.78-.83.45-1.44-.15-2.1l-3.43.62a1.28,1.28,0,0,0-1.45-1.33c-1.58.1-1.36,1.28-1.36,2.31q0,13.5,0,27c0,1.05-.15,2.2,1.44,2.24Z"/><path class="cls-3" d="M55.19,93.89l-.71-.18,0-.7a21.33,21.33,0,0,0,.08-11.13,11,11,0,0,1,1.26-5c.71-.38.67-1,.51-1.63l-.15.09c2.12-.7,1.85-4,4.44-4.14C60.1,73,59.44,74.69,59,76.47c-.27,1.18-1.31,2.88,1,3.22,1.68.24,3.17.13,3.52-2.19a35.69,35.69,0,0,1,1.67-6.68c.52-1.5.25-2.43-1-3.19l.9-2.55L68.5,65l.94.64C74,69.4,76.24,69.4,81,65.6l2.18,0C85.53,73.93,87,82.34,86.63,91c-2.34-1-4.4-2.58-6.93-3.24-4.81-1.25-10.52.68-12.54,4.35l-4.24,2.4c0-2.31-.16-4.63,0-6.93s-.5-3-2.87-3.06c-2.55,0-2.8,1.22-2.71,3.22s0,4.15-.06,6.23Z"/><path class="cls-4" d="M63.61,55.54c3.17-10,4.71-20.24,5.65-30.62l1.53.14-1.66,22a88.85,88.85,0,0,0,4.06-22c1.51-.05,3-.05,4.53-.18,1.87-.15,2.6.46,2.77,2.5a140.77,140.77,0,0,0,4.84,28.38L83.61,56c-5.16-1.06-10.32-2.79-15.49,0Z"/><path class="cls-5" d="M85.33,55.82a140.77,140.77,0,0,1-4.84-28.38c-.17-2-.9-2.65-2.77-2.5-1.51.13-3,.13-4.53.18l-2.4-.06-1.53-.14c.08-1.36-.91-2.31-1.33-3.48,3.54-.44,6.94,1,10.66.29,3.41-.66,4.06-2.63,3-4.75-1.76-3.73-.92-7.48-1.21-11.22,2.28.22,3.1,1.43,3,3.75,0,3-.75,6.06,1.45,8.72.84,1,.35,2.41-.35,3.3-1.7,2.21-1.28,4.63-1,7a133.17,133.17,0,0,0,4.9,25.72C87.55,55.11,86.7,56,85.33,55.82Z"/><path class="cls-4" d="M80.43,5.76c.29,3.74-.55,7.49,1.21,11.22,1,2.12.36,4.09-3,4.75-3.72.72-7.12-.73-10.66-.29-.71-1-1.17-2.24-.39-3.22,1.93-2.44,1.5-5.24,1.35-7.93s.64-4.21,3.23-4.79c-1.56,3.49-.39,7.18-.61,10.79a19.91,19.91,0,0,0,1.22-11C75.3,5.4,77.91,4.75,80.43,5.76Z"/><path class="cls-6" d="M94.48,133.23a5.9,5.9,0,0,0,.61-3.6,1.83,1.83,0,0,0,0-.66c0-8.92.06-17.84,0-26.76,0-.71.44-1.68-.68-2.06,1.1-2,.57-4.19.67-6.31L98,93c.2,13.36.93,26.73-.08,40.1Z"/><path class="cls-7" d="M58.65,133.68l2,.16c1.14.75,2.41.53,3.65.5l6.09.23,1.57.3a19,19,0,0,0,6.56-.16,1.35,1.35,0,0,0,1.5-.14l6.09-.23,2.77.09c.07,1.93-1,3-2.7,3.6-7.46-1.9-15.27.71-22.66-2.18,1.09,1.49,2.6,1.71,3.94,2.31,1.79.81,4.07-.22,5.5,1.62-1.39.67-3.1-.25-4.39.88A40.47,40.47,0,0,1,59,139c-2.81-.87-4.67-2.49-4.46-5.72l1-.13C56.22,135.63,57.66,133.28,58.65,133.68Z"/><path class="cls-8" d="M85.33,55.82c1.37.17,2.22-.71,3.12-1.52l3.71,9.93c-4.28-.21-1.49,2.68-1.83,4.2-1.62.15-2.58-1.81-4.3-1.35a1.31,1.31,0,0,1-.07-.52l-.59-.88c-.7-1-1.44-.33-2.17-.06L81,65.6c1.6-2.89,2-5.79,0-8.71L83.62,56Z"/><path class="cls-3" d="M90.33,68.43c.34-1.52-2.45-4.41,1.83-4.2C96.34,73.37,99.25,82.78,98,93l-2.86.81v-.32A50.22,50.22,0,0,0,91,69.92c0-.58-.08-1.16-.7-1.47Z"/><path class="cls-9" d="M86.14,138c1.68-.62,2.77-1.67,2.7-3.6a1.68,1.68,0,0,0,.41-.54l2.43-.21c.87,0,1.78.2,2.51-.5l.29,0,3.45-.1A4.31,4.31,0,0,1,95.39,138c-5.88,2.79-12.18,3.14-18.56,2.84l2.25-1.33C81.67,140.16,83.67,138,86.14,138Z"/><path class="cls-8" d="M63.61,55.54l4.52.42c.77.52,1.38.91.72,2.11C67.59,60.33,68,62.69,69,65a3,3,0,0,0-.52,0l-3.38.1c-1.61-.15-3.32,0-4.41-1.63A38.47,38.47,0,0,1,63.61,55.54Z"/><path class="cls-9" d="M60.71,63.45c1.09,1.58,2.8,1.48,4.41,1.63-.29.85-.59,1.7-.89,2.55-2.57-.17-2.59,2.2-3.58,3.6-2.59.19-2.32,3.44-4.44,4.14A71.38,71.38,0,0,1,60.71,63.45Z"/><path class="cls-10" d="M72.73,5.33a19.91,19.91,0,0,1-1.22,11c.22-3.61-1-7.3.61-10.79Z"/><path class="cls-9" d="M54.59,81.88A21.33,21.33,0,0,1,54.51,93,65.67,65.67,0,0,1,54.59,81.88Z"/><path class="cls-7" d="M79.08,139.51l-2.25,1.33-2-.14.06-.94C76.23,139.05,77.66,139.43,79.08,139.51Z"/><path class="cls-9" d="M74.86,139.76l-.06.94c-2.09.65-4.18.15-6.27,0,1.29-1.13,3-.21,4.39-.88Z"/><path class="cls-9" d="M56.36,75.28c.16.65.2,1.25-.51,1.63C55.85,76.31,55.72,75.68,56.36,75.28Z"/><path class="cls-11" d="M63,101.5v28.1L62.12,131l-2.06-.63a1.54,1.54,0,0,0-2-.06l0,0c.1-10.07-.39-20.14.24-30.2l1.14,0,3.43-.62Z"/><path class="cls-6" d="M85.35,129.56c1-7.7.73-15.45.64-23.18,0-2.4.23-4.24,2.79-5v0c1.64.28,1.51,1.55,1.46,2.71-.38,8.49.53,16.94.71,25.41C89.11,131,87.22,129,85.35,129.56Z"/><path class="cls-12" d="M83.2,65.62c.73-.27,1.47-.9,2.17.06l.59.88a1.31,1.31,0,0,0,.07.52A81.55,81.55,0,0,1,89,93c0,.5.39,1,.59,1.54-.78.86-1.79.59-2.76.56L86,93.87c1.12-.74.73-1.84.66-2.86C87,82.34,85.53,73.93,83.2,65.62Z"/><path class="cls-7" d="M86.63,91c.07,1,.46,2.12-.66,2.86C84.05,93,82.34,91.5,80,91.56a2.71,2.71,0,0,0-2.38-.48,18.29,18.29,0,0,0-6.39.09l-1.49.44-2.61.51c2-3.67,7.73-5.6,12.54-4.35C82.23,88.43,84.29,90,86.63,91Z"/><path class="cls-13" d="M57.26,94c0-2.08.14-4.16.06-6.23s.16-3.24,2.71-3.22c2.37,0,3,.89,2.87,3.06s0,4.62,0,6.93c-.66,1.12-1.73.32-2.58.55-.91-.8-2-.63-3.07-.6h0A1,1,0,0,1,57.26,94Z"/><path class="cls-14" d="M86.79,95.05c1,0,2,.3,2.76-.56,2,.23,3.74-.61,5.61-1v.32c-.1,2.12.43,4.3-.67,6.31a1,1,0,0,1-.14.64l-1.54-.12c-1.42-3-3.68.33-5.36-.73C86.39,98.43,86.82,96.71,86.79,95.05Z"/><path class="cls-15" d="M58.25,100c-.63,10.06-.14,20.13-.24,30.2-1.59,0-1.44-1.19-1.44-2.24q0-13.5,0-27c0-1-.22-2.21,1.36-2.31C58.05,99.14,58.15,99.59,58.25,100Z"/><path class="cls-15" d="M83.08,132.32l-14.38,0c0-.42-.11-.84-.17-1.26l14,0Z"/><path class="cls-16" d="M94.34,100.79a1,1,0,0,0,.14-.64c1.12.38.68,1.35.68,2.06,0,8.92,0,17.84,0,26.75l-.71-.11Z"/><path class="cls-15" d="M82.31,102.11H70.1c0-.42-.11-.84-.16-1.27,4,.06,8-.73,11.89.71Z"/><path class="cls-14" d="M83.08,132.32l-.59-1.25c.56-1.25,2.24-.37,2.86-1.51,1.87-.56,3.76,1.42,5.61-.05.72,1.13-.37,2.18-.85,2C87.53,130.41,85.47,132.6,83.08,132.32Z"/><path class="cls-15" d="M87.44,99.94c1.68,1.06,3.94-2.25,5.36.73-1.34.21-2.77-.06-4,.72v0l-4.17.19c.08-.46.16-.93.23-1.39Z"/><path class="cls-14" d="M69.94,100.84c0,.43.11.85.16,1.27-1.45.17-2.7,0-3.24-1.72C68,100,69.06,99.77,69.94,100.84Z"/><path class="cls-14" d="M84.84,100.16c-.07.46-.15.93-.23,1.39-.61.83-1.47.61-2.29.56l-.49-.56C82.11,99.51,83.65,100.2,84.84,100.16Z"/><path class="cls-14" d="M68.53,131c.06.42.12.84.17,1.26-1.48.36-2.36-.44-3.18-1.74C66.68,130.13,67.68,130,68.53,131Z"/><path class="cls-14" d="M94.4,128.85l.71.11a1.88,1.88,0,0,1,0,.67c-.75.29-1.15,2.07-2.08,1C92.36,129.83,93.37,129,94.4,128.85Z"/><path class="cls-14" d="M58.65,133.68c-1-.4-2.43,1.95-3.09-.5C56.62,133.15,57.74,132.74,58.65,133.68Z"/><path class="cls-14" d="M62.12,131,63,129.6c.58.44,1.13,1.19.79,1.7C63.29,132,62.59,131.55,62.12,131Z"/><path class="cls-14" d="M64.26,134.34c-1.24,0-2.51.25-3.65-.5C61.84,133.89,63.15,133.37,64.26,134.34Z"/><path class="cls-14" d="M57.27,94.47c1.07,0,2.16-.2,3.07.6C59.28,95.08,58.12,95.53,57.27,94.47Z"/><path class="cls-14" d="M89.25,133.89a1.68,1.68,0,0,1-.41.54l-2.77-.09C87,133.45,88.16,133.86,89.25,133.89Z"/><path class="cls-14" d="M63,101.5l-.15-2.1C63.42,100.06,64.75,100.67,63,101.5Z"/><path class="cls-14" d="M58,130.28a1.54,1.54,0,0,1,2,.06C59.36,131.14,58.68,131.22,58,130.28Z"/><path class="cls-14" d="M58.25,100c-.1-.45-.2-.9-.31-1.35A1.28,1.28,0,0,1,59.39,100Z"/><path class="cls-14" d="M94.19,133.18c-.73.7-1.64.52-2.51.5C92.39,132.87,93.31,133.13,94.19,133.18Z"/><path class="cls-14" d="M57.26,94a1,1,0,0,0,0,.48c-.74,0-1.52.13-2.07-.57Z"/><path class="cls-14" d="M77.65,91.08a2.71,2.71,0,0,1,2.38.48C79.19,91.62,78.32,91.84,77.65,91.08Z"/><path class="cls-14" d="M69.77,91.61l1.49-.44Z"/><path class="cls-14" d="M71.92,134.87l-1.57-.3Z"/><path class="cls-14" d="M80,134.57a1.35,1.35,0,0,1-1.5.14Z"/><path class="cls-14" d="M69,65c-1-2.27-1.43-4.63-.17-6.89.66-1.2.05-1.59-.72-2.11,5.16-2.8,10.32-1.07,15.48,0L81,56.89c2,2.92,1.63,5.82,0,8.71-4.78,3.8-7,3.8-11.58,0Z"/><path class="cls-13" d="M60.65,71.23c1-1.4,1-3.77,3.58-3.6,1.28.76,1.55,1.69,1,3.19a35.69,35.69,0,0,0-1.67,6.68c-.35,2.32-1.84,2.43-3.52,2.19-2.35-.34-1.31-2-1-3.22C59.44,74.69,60.1,73,60.65,71.23Z"/><path class="cls-9" d="M69,65l.42.66L68.5,65A3,3,0,0,1,69,65Z"/><path class="cls-10" d="M70.79,25.06l2.4.06a88.85,88.85,0,0,1-4.06,22Z"/><path class="cls-12" d="M74.86,139.76l-1.94,0c-1.43-1.84-3.71-.81-5.5-1.62-1.34-.6-2.85-.82-3.94-2.31,7.39,2.89,15.2.28,22.66,2.18-2.47,0-4.47,2.13-7.06,1.48C77.66,139.43,76.23,139.05,74.86,139.76Z"/><path class="cls-9" d="M95.16,93.52c-1.87.36-3.64,1.2-5.61,1-.2-.51-.62-1-.59-1.54A81.55,81.55,0,0,0,86,67.08c1.72-.46,2.68,1.5,4.3,1.35l0,0a1.41,1.41,0,0,0,.7,1.47A50.22,50.22,0,0,1,95.16,93.52Z"/><path class="cls-9" d="M86,66.56l-.59-.88Z"/><path class="cls-8" d="M91,69.92a1.41,1.41,0,0,1-.7-1.47C90.91,68.76,91,69.34,91,69.92Z"/></g></svg>