<svg id="Layer_1" data-name="Layer 1" xmlns="http://www.w3.org/2000/svg" viewBox="0 0 164.46 157.73"><defs><style>.cls-1{fill:#3d2b56;}</style></defs><g id="_9BrkhY.tif" data-name="9BrkhY.tif"><path class="cls-1" d="M28,129V43.79a3.54,3.54,0,0,0,.11-.44A8.25,8.25,0,0,1,36.7,36h7.95c0-.28,0-.48,0-.67,0-2.16,0-4.31,0-6.46A10.26,10.26,0,0,1,53,19.33a31.27,31.27,0,0,1,6.84-.2,10.11,10.11,0,0,1,9.66,9.23c.24,2.25.09,4.53.12,6.79v.77H94.51c0-2.22,0-4.4,0-6.57a10.36,10.36,0,0,1,8.6-10.09,32.42,32.42,0,0,1,6.31-.16,10.14,10.14,0,0,1,9.83,8.84,63.65,63.65,0,0,1,.16,7.05c0,.31,0,.61,0,1h8.07A8.37,8.37,0,0,1,136,44.53q0,41.79,0,83.57a8.6,8.6,0,0,1-8.53,8.61q-45.51-.09-91,0a8.24,8.24,0,0,1-7.29-4.17A9.59,9.59,0,0,1,28,129Zm8.37-.67h91.3V61.21H36.39Zm24.89-89q0-4.74,0-9.48a1.9,1.9,0,0,0-2-2.14c-1.43,0-2.86,0-4.3,0a1.88,1.88,0,0,0-2,1.93c0,.22,0,.44,0,.67,0,5.93,0,11.87,0,17.81a6.11,6.11,0,0,0,0,.74,1.83,1.83,0,0,0,2,1.85c1.3,0,2.6,0,3.9,0,1.75,0,2.4-.66,2.41-2.39Zm41.54-.15c0,3.11,0,6.23,0,9.34a1.93,1.93,0,0,0,2.18,2.2c1.39,0,2.78,0,4.16,0a1.82,1.82,0,0,0,1.92-1.84,8.43,8.43,0,0,0,0-.87V34.52c0-1.53,0-3.05,0-4.57s-.73-2.28-2.33-2.29c-1.19,0-2.38,0-3.56,0-1.72,0-2.4.69-2.41,2.4Z"/></g></svg>