<svg xmlns="http://www.w3.org/2000/svg" viewBox="0 0 109.87 264.69"><defs><style>.cls-1{fill:#631318;}.cls-2{fill:#c16767;}.cls-3{fill:#1d1d1b;}.cls-4{fill:#fef6f4;opacity:0.48;}.cls-5{opacity:0.13;}</style></defs><g id="Red_liquid1" data-name="Red liquid1"><path class="cls-1" d="M7.92,105.11c.19,1.42,11.36,36.86,47,36.67,47.3-3,43.61-37.4,43.61-37.4l-90.6.73"/></g><g id="Red_liquid2" data-name="Red liquid2"><path class="cls-2" d="M7.92,105.11c.34-2.82,61.24-9.32,90.6-.73C101.16,111.86,7.57,107.94,7.92,105.11Z"/></g><g id="Red_glass" data-name="Red glass"><path d="M24.45,43.84a13.18,13.18,0,0,1-.83,3.83c-.4,1.25-.85,2.48-1.31,3.7-.91,2.45-1.91,4.86-2.87,7.29-1.93,4.85-3.81,9.71-5.5,14.65-3.28,9.85-6.34,20-6.51,30.42,0,5.17.7,10.5,3.2,15.08A23.44,23.44,0,0,0,12.81,122L14,123.59c.41.51.84,1,1.26,1.49a54.27,54.27,0,0,0,5.49,5.55A51.74,51.74,0,0,0,27,135.26a46.66,46.66,0,0,0,14.38,5.87,54.21,54.21,0,0,0,7.72,1.13h.05l0,0A11.3,11.3,0,0,1,52.53,146a7.1,7.1,0,0,1,.83,2.38c0,.85,0,1.64,0,2.47l.16,9.81.32,19.62.29,19.62.12,9.81c0,1.64,0,3.27,0,4.92a15.41,15.41,0,0,1-1.14,4.85,18.81,18.81,0,0,1-2.32,4.41,4,4,0,0,1-.44.49,1.17,1.17,0,0,1-.3.22.92.92,0,0,1-.4.14c-.43.05-.83.07-1.24.09l-2.45.15c-3.26.19-6.52.42-9.77.77a86.74,86.74,0,0,0-9.65,1.47A27.92,27.92,0,0,0,22,228.57a8.8,8.8,0,0,0-2.07,1.13,2.39,2.39,0,0,0-1.12,1.73,2.56,2.56,0,0,0,1.12,1.77,10.46,10.46,0,0,0,2,1.25,30.81,30.81,0,0,0,4.52,1.74,79,79,0,0,0,9.51,2.19,117.68,117.68,0,0,0,19.47,1.69,122.14,122.14,0,0,0,19.47-1.68,69.21,69.21,0,0,0,9.49-2.22,23,23,0,0,0,4.45-1.87,6.61,6.61,0,0,0,1.81-1.44A1.76,1.76,0,0,0,91,231a4.27,4.27,0,0,0-1.51-1.63,11.42,11.42,0,0,0-2.11-1.1,28.07,28.07,0,0,0-4.64-1.34A80.33,80.33,0,0,0,73,225.62c-3.25-.25-6.51-.38-9.78-.48L60.8,225c-.41,0-.82,0-1.24-.08a2,2,0,0,1-.72-.16,1.94,1.94,0,0,1-.58-.46,8.35,8.35,0,0,1-1.32-2.2,21.15,21.15,0,0,1-.87-2.34,23.47,23.47,0,0,1-1-4.88c-.06-1.67,0-3.29,0-4.93l0-9.81.11-19.62.19-19.63.13-9.81c0-.82,0-1.63.06-2.47a7.44,7.44,0,0,1,.69-2.45A20.79,20.79,0,0,1,58.93,142l.07-.1h.13a68.8,68.8,0,0,0,15.12-3.46A50.76,50.76,0,0,0,88,131.31a27,27,0,0,0,5.44-5.45,23.43,23.43,0,0,0,3.29-7,59.46,59.46,0,0,0,2.74-15.26A86.86,86.86,0,0,0,95.05,73,132.11,132.11,0,0,0,81.91,44.76l.07,0A132.7,132.7,0,0,1,95.31,72.88a86.28,86.28,0,0,1,4.53,30.78A59.55,59.55,0,0,1,97.13,119a24.14,24.14,0,0,1-3.33,7.1,27.49,27.49,0,0,1-5.52,5.57A50.9,50.9,0,0,1,74.43,139a69.8,69.8,0,0,1-15.23,3.55l.2-.12a20.23,20.23,0,0,0-2.59,4.06,6.61,6.61,0,0,0-.63,2.24c0,.8,0,1.62,0,2.44l-.1,9.81-.12,19.62-.11,19.62,0,9.81c0,1.63,0,3.28,0,4.88a22.6,22.6,0,0,0,1,4.72,12.74,12.74,0,0,0,2,4.25,1.22,1.22,0,0,0,.37.3,1.51,1.51,0,0,0,.48.09c.39,0,.79.06,1.2.08l2.44.1c3.27.1,6.55.23,9.82.49a78.68,78.68,0,0,1,9.77,1.28,27.53,27.53,0,0,1,4.76,1.38,10.87,10.87,0,0,1,2.24,1.17,4.9,4.9,0,0,1,1.77,1.94,2.33,2.33,0,0,1,.16,1.41,2.88,2.88,0,0,1-.63,1.23,7.27,7.27,0,0,1-2,1.61,24.54,24.54,0,0,1-4.59,1.93A72.1,72.1,0,0,1,75,239.09a122.58,122.58,0,0,1-19.59,1.68,119,119,0,0,1-19.59-1.71,79.25,79.25,0,0,1-9.59-2.21,31.4,31.4,0,0,1-4.63-1.79,11.7,11.7,0,0,1-2.14-1.33,3.25,3.25,0,0,1-1.36-2.29,3,3,0,0,1,1.39-2.28,9.65,9.65,0,0,1,2.22-1.22,28.47,28.47,0,0,1,4.75-1.42,86.88,86.88,0,0,1,9.73-1.47c3.26-.33,6.53-.56,9.8-.74l2.45-.14c.4,0,.82,0,1.2-.08.22,0,.51-.33.74-.62a18.36,18.36,0,0,0,2.25-4.25,14.9,14.9,0,0,0,1.11-4.65c0-1.62,0-3.26,0-4.89l-.08-9.81-.23-19.62-.26-19.62L53,150.82c0-.81,0-1.66-.05-2.44a6.63,6.63,0,0,0-.77-2.24A11.11,11.11,0,0,0,49,142.59l.1,0a55.16,55.16,0,0,1-7.77-1.15,47.2,47.2,0,0,1-14.47-5.95,51.4,51.4,0,0,1-6.3-4.68,53.76,53.76,0,0,1-5.5-5.59c-.43-.5-.86-1-1.27-1.49l-1.19-1.56a22.44,22.44,0,0,1-2.17-3.28A31.87,31.87,0,0,1,7,103.73,72.27,72.27,0,0,1,9,88.16a123,123,0,0,1,4.42-15c1.74-4.93,3.69-9.78,5.67-14.61l3-7.24c.5-1.21,1-2.42,1.42-3.65a13,13,0,0,0,.92-3.76Z"/><path class="cls-3" d="M24.5,43.8a90.47,90.47,0,0,1,14.14-3.7,93.62,93.62,0,0,1,14.57-1.42A70.18,70.18,0,0,1,67.81,40l3.58.8c1.19.3,2.34.73,3.52,1.09l1.75.56c.57.21,1.13.48,1.69.71l3.38,1.47.32.14-.15.34a4,4,0,0,1-1.32,1.56,9.33,9.33,0,0,1-1.71,1,20.4,20.4,0,0,1-3.63,1.15,54.24,54.24,0,0,1-7.47,1.09,123.58,123.58,0,0,1-15,.26c-5-.2-10-.61-15-1.3-2.48-.37-5-.8-7.38-1.41a26.55,26.55,0,0,1-3.58-1.13,8,8,0,0,1-1.67-.87,2.35,2.35,0,0,1-.64-.69A.91.91,0,0,1,24.5,43.8Zm0,0a.89.89,0,0,0,0,.88,2,2,0,0,0,.65.66,7.88,7.88,0,0,0,1.67.83,27.78,27.78,0,0,0,3.59,1c2.44.54,4.91.91,7.39,1.22,5,.62,9.94.95,14.93,1.09a135.5,135.5,0,0,0,14.95-.36A54.66,54.66,0,0,0,75.07,48a19.6,19.6,0,0,0,3.5-1.13,5,5,0,0,0,2.65-2.14l.18.49L78.07,43.8c-.55-.24-1.1-.51-1.66-.72l-1.73-.56c-1.16-.35-2.29-.79-3.46-1.08l-3.54-.82a73.9,73.9,0,0,0-14.47-1.37,94.16,94.16,0,0,0-14.51,1.2A91.26,91.26,0,0,0,24.5,43.8Z"/><path class="cls-4" d="M52.06,131.64c4.65,2.54-13.51-1.12-13.51-1.12l9.57,3.38s3.8,3.09-.56,2.25S23,132.74,17,113.26c-1.68-16.53,1.84-3.58,2.68.36S16,79.41,18.55,97.57,27.28,127.14,52.06,131.64Z"/><path class="cls-5" d="M48.65,228.32s6.24-5.16,12.39.75-3.06.07-3.06.07,2.9,3.09,2.43,2.84-7.89-4.55-10.79-2.63S48.65,228.32,48.65,228.32Z"/></g></svg>