<svg id="Layer_1" data-name="Layer 1" xmlns="http://www.w3.org/2000/svg" viewBox="0 0 210 512"><defs><style>.cls-1{fill:#232020;}</style></defs><path class="cls-1" d="M191,415.5a10,10,0,1,0,7.07,2.93A10,10,0,0,0,191,415.5Z"/><path class="cls-1" d="M171.25,232a213.8,213.8,0,0,1-27.2-104.23V20.64A20.66,20.66,0,0,0,123.41,0H86.51A20.67,20.67,0,0,0,65.86,20.64V127.8A213.75,213.75,0,0,1,38.72,231.93V232A233.67,233.67,0,0,0,9,345.88V483.05A29,29,0,0,0,38,512H172.1A29,29,0,0,0,201,483.05V461a10,10,0,0,0-20,0v22.05a9,9,0,0,1-8.95,8.95H38a9,9,0,0,1-8.95-8.95V345.88A213.75,213.75,0,0,1,56.19,241.75l.05-.08a233.94,233.94,0,0,0,28.43-90H125.3a234,234,0,0,0,28.5,90A213.85,213.85,0,0,1,181,346v37.7a10,10,0,1,0,20,0V346A233.94,233.94,0,0,0,171.25,232ZM85.86,20.64a.65.65,0,0,1,.65-.64h36.9a.64.64,0,0,1,.64.64h0V48H85.86Zm0,111.05V68h38.19v63.75Z"/><path class="cls-1" d="M59,309.27a10,10,0,0,0-10,10V448.13a10,10,0,0,0,10,10h92.1a10,10,0,0,0,10-10V319.27a10,10,0,0,0-10-10Zm82.1,128.86H69V329.27h72.1Z"/></svg>