<svg xmlns="http://www.w3.org/2000/svg" viewBox="0 0 107.61 264.69"><defs><style>.cls-1{fill:#f4e184;}.cls-2{fill:#f7f1e3;}.cls-3{fill:#fef6f4;opacity:0.48;}.cls-4{opacity:0.13;}</style></defs><g id="White_liquid_1" data-name="White liquid 1"><path class="cls-1" d="M13.48,74.82c.15,1.24-13.52,40.54,37.67,58.7C99.92,119.3,88.94,75.66,88.94,75.66"/></g><g id="White_liquid2" data-name="White liquid2"><path class="cls-2" d="M13.21,75.64c.29-3.09,51-10.24,75.41-.84C90.81,83,12.92,78.74,13.21,75.64Z"/></g><g id="White_glass" data-name="White glass"><path d="M21.07,25.76q-3.75,14.83-6.13,30a196.24,196.24,0,0,0-2.7,30.39,73.11,73.11,0,0,0,1.45,15.14,30.42,30.42,0,0,0,2.44,7.14,16.69,16.69,0,0,0,2,3.14c.79,1,1.69,1.89,2.54,2.82a108.42,108.42,0,0,0,11.15,10.39,57.14,57.14,0,0,0,12.88,8l.08,0,0,.06a53.49,53.49,0,0,1,3.45,4.81l.8,1.23.4.61.21.31a1.81,1.81,0,0,1,.18.43,18.54,18.54,0,0,1,.38,3c.25,3.93.29,7.85.33,11.78,0,7.84,0,15.69-.15,23.53S50.18,194.17,50,202l-.33,11.76a28.25,28.25,0,0,1-.19,3,8.49,8.49,0,0,1-1.08,2.85A11.81,11.81,0,0,1,44,223.77l-.06,0h-.09c-5.24.24-10.48.7-15.67,1.43-2.59.38-5.17.83-7.71,1.44a26.6,26.6,0,0,0-7.27,2.67A4.2,4.2,0,0,0,11,232a4.07,4.07,0,0,0,1.32,3.23,9.92,9.92,0,0,0,3.21,2,25.16,25.16,0,0,0,3.71,1.12,85.69,85.69,0,0,0,15.61,1.55,282.65,282.65,0,0,0,31.48-.81,117.38,117.38,0,0,0,15.54-2.3c1.27-.3,2.53-.65,3.76-1.07a13.8,13.8,0,0,0,3.45-1.68,3,3,0,0,0,1.1-1.35,1.82,1.82,0,0,0-.33-1.6,7.6,7.6,0,0,0-3-2.26,31.68,31.68,0,0,0-7.47-2.2c-2.57-.48-5.17-.81-7.78-1.07s-5.23-.45-7.85-.62l-3.94-.24a32.16,32.16,0,0,1-4-.4,3,3,0,0,1-1.61-1.4,11.31,11.31,0,0,1-.92-1.8c-.51-1.23-.89-2.5-1.28-3.75l-.31-.93a2.71,2.71,0,0,1-.16-.52c0-.17,0-.34,0-.51-.05-.66-.07-1.32-.09-2l-.09-3.95c-.06-5.26-.06-10.52-.05-15.78q0-15.76.3-31.55c.1-5.25.2-10.51.38-15.77l.17-3.94c0-.66.08-1.32.15-2a5.22,5.22,0,0,1,.54-2,14.75,14.75,0,0,1,2.33-3.24A36.94,36.94,0,0,1,58,132.5l0,0,0,0a67.94,67.94,0,0,0,12.85-8,65.87,65.87,0,0,0,5.7-5,53,53,0,0,0,5-5.65,53.42,53.42,0,0,0,4.16-6.32,32,32,0,0,0,2.75-7,62.08,62.08,0,0,0,1.86-15,158.82,158.82,0,0,0-3-30.19c-1.83-10-4.22-19.82-6.85-29.61l.07,0c2.66,9.78,5.09,19.63,7,29.6a159,159,0,0,1,3.12,30.23,62.45,62.45,0,0,1-1.83,15.09,33,33,0,0,1-2.75,7.11A54.17,54.17,0,0,1,82,114.05a52.8,52.8,0,0,1-5.07,5.7,65.13,65.13,0,0,1-5.73,5,68.39,68.39,0,0,1-12.9,8.07l0,0a36.08,36.08,0,0,0-2.81,2.72,14.06,14.06,0,0,0-2.25,3.15,9.56,9.56,0,0,0-.65,3.77l-.16,3.93c-.18,5.26-.27,10.51-.35,15.77q-.24,15.76-.25,31.54c0,5.26,0,10.52.08,15.77L52,213.4c0,.66.05,1.31.1,2,0,.16,0,.32.05.47a3.62,3.62,0,0,0,.13.42l.32.94c.39,1.26.78,2.51,1.27,3.7a10.55,10.55,0,0,0,.87,1.71A2.57,2.57,0,0,0,56,223.76a34.28,34.28,0,0,0,3.87.38l3.93.23c2.63.16,5.26.35,7.88.6s5.24.59,7.84,1.07a32.49,32.49,0,0,1,7.62,2.24,8.1,8.1,0,0,1,3.23,2.47,2.44,2.44,0,0,1,.41,2.14,3.61,3.61,0,0,1-1.32,1.67,14,14,0,0,1-3.62,1.77,38.76,38.76,0,0,1-3.82,1.1,118.13,118.13,0,0,1-15.63,2.34,284.18,284.18,0,0,1-31.56.87,86.94,86.94,0,0,1-15.75-1.55,24.81,24.81,0,0,1-3.83-1.16,10.56,10.56,0,0,1-3.46-2.13A4.82,4.82,0,0,1,10.26,232a3.52,3.52,0,0,1,1-1.94,7.08,7.08,0,0,1,1.61-1.29A27.65,27.65,0,0,1,20.32,226c2.58-.62,5.18-1.07,7.79-1.44,5.22-.74,10.47-1.19,15.74-1.43l-.15,0a11.3,11.3,0,0,0,4.06-3.89,7.94,7.94,0,0,0,1-2.61,24.33,24.33,0,0,0,.18-2.88L49.26,202q.3-11.75.49-23.51c.12-7.84.21-15.68.16-23.52,0-3.91-.07-7.84-.32-11.73a18.5,18.5,0,0,0-.35-2.85,2.1,2.1,0,0,0-.09-.25l-.21-.3-.4-.61L47.73,138a50.47,50.47,0,0,0-3.4-4.75l.13.1a58.43,58.43,0,0,1-13-8.08A109.81,109.81,0,0,1,20.21,114.8c-.86-1-1.74-1.85-2.57-2.86a18.34,18.34,0,0,1-2.09-3.27,31.58,31.58,0,0,1-2.47-7.3A73.14,73.14,0,0,1,11.7,86.11a195.37,195.37,0,0,1,2.92-30.45Q17.14,40.56,21,25.74Z"/><path d="M21,25.85a1.57,1.57,0,0,1,.76-.53,9.37,9.37,0,0,1,.89-.31c.61-.17,1.22-.31,1.84-.43,1.23-.25,2.48-.44,3.72-.61,2.5-.34,5-.59,7.51-.8q7.51-.65,15.07-.89c5-.15,10.07-.2,15.11,0,2.52.12,5,.31,7.55.65a32.13,32.13,0,0,1,3.75.7,13.78,13.78,0,0,1,1.84.63,3.35,3.35,0,0,1,1.64,1.31l0,.07v.1a1.4,1.4,0,0,1-.63,1.07,3.71,3.71,0,0,1-.91.5,11.8,11.8,0,0,1-1.87.57,32.58,32.58,0,0,1-3.77.63c-2.53.31-5.06.47-7.59.58-5.06.21-10.12.18-15.17.06s-10.11-.36-15.15-.73c-2.52-.18-5-.39-7.55-.69-1.26-.15-2.51-.31-3.76-.54-.62-.11-1.24-.24-1.85-.41a5.82,5.82,0,0,1-.89-.3,1.52,1.52,0,0,1-.41-.24C21,26.16,20.89,26,21,25.85Zm0,0c-.07.16.05.31.17.4a2.06,2.06,0,0,0,.41.23,5.59,5.59,0,0,0,.9.3c.61.16,1.23.29,1.85.39,1.24.22,2.5.38,3.75.52,2.51.28,5,.47,7.56.63,5,.3,10.09.43,15.14.46s10.11-.06,15.14-.32c2.52-.13,5-.31,7.53-.63a34.68,34.68,0,0,0,3.69-.64,10.82,10.82,0,0,0,1.75-.55c.53-.21,1.1-.6,1.08-.89l0,.16a2.81,2.81,0,0,0-1.27-1,12.17,12.17,0,0,0-1.73-.6,31.57,31.57,0,0,0-3.66-.72c-2.47-.35-5-.55-7.48-.69-5-.28-10-.34-15.07-.28s-10.06.26-15.07.63c-2.51.19-5,.43-7.51.74-1.25.17-2.49.35-3.73.58-.61.13-1.23.26-1.83.43a6.78,6.78,0,0,0-.9.3A1.56,1.56,0,0,0,21,25.85Z"/><path class="cls-3" d="M17.84,88s-1.13,22.24,18.3,33.23c15.24,8.61-3.1-7-3.1-7s15.2,9.85,11.83,5.63C19.24,98.7,21.5,86.59,18.4,83.21c-3.92-4.27,8.73,21.4,6.76,19.43S17.84,88,17.84,88Z"/><path class="cls-4" d="M43.58,226.32s6.24-5.16,12.4.75-3.07.07-3.07.07,2.91,3.09,2.43,2.84-7.89-4.55-10.79-2.63S43.58,226.32,43.58,226.32Z"/></g></svg>