<svg id="Layer_1" data-name="Layer 1" xmlns="http://www.w3.org/2000/svg" viewBox="0 0 512 512"><defs><style>.cls-1{fill:#fde7da;}</style></defs><g id="Page-1"><g id="_027---Wine-Barrel" data-name="027---Wine-Barrel"><path id="Shape" class="cls-1" d="M188.93,452.27a281.16,281.16,0,0,1-17.41-33.93,8.53,8.53,0,1,0-15.67,6.75,299.22,299.22,0,0,0,21,40.1v.11a292.49,292.49,0,0,0,27.43,37.83A25.41,25.41,0,0,0,223.75,512H416.29a25.43,25.43,0,0,0,19.4-8.83,292.31,292.31,0,0,0,27.49-37.93c.05-.1.07-.19.12-.28a319.61,319.61,0,0,0,29.34-61v0a313.46,313.46,0,0,0,12.06-43.7,342.13,342.13,0,0,0,0-140.07,313,313,0,0,0-12.06-43.69v-.05A320.52,320.52,0,0,0,463.1,115a294.27,294.27,0,0,0-27.38-37.88,25.58,25.58,0,0,0-19.46-8.86H255.66a8.53,8.53,0,1,0,0,17.06h160.6a8.58,8.58,0,0,1,6.46,2.79c6.31,7.46,12.16,15.1,17.47,22.81H229.38a8.56,8.56,0,0,0-7.84,5.12c-2.46,5.7-4.82,11.56-7,17.51a8.53,8.53,0,0,0,16,5.88c1.43-3.87,2.92-7.68,4.47-11.47h42.26c-.85,5.19-1.76,10.52-2.56,16.06a8.53,8.53,0,0,0,16.89,2.47c.94-6.41,1.94-12.61,3-18.53h50.82c2.31,13.06,4.39,27.36,6.19,42.66h-61a8.54,8.54,0,1,0,0,17.07H478.5c2.94,8.86,5.36,17.33,7.32,25.6H298.67a8.54,8.54,0,1,0,0,17.07h58a1074.62,1074.62,0,0,1,.1,119.46H283.25c-1.46-26.7-1.92-53.38-1.39-79.44a8.55,8.55,0,0,0-8.36-8.71,8.69,8.69,0,0,0-8.71,8.36c-.53,26.18.08,53,1.52,79.79h-53.4a8.54,8.54,0,1,0,0,17.07H485.82c-2,8.27-4.38,16.74-7.32,25.6H193.71a8.54,8.54,0,1,0,0,17.07h9.21a379.91,379.91,0,0,0,13.77,42.66Zm233.81,39.81a8.35,8.35,0,0,1-6.42,2.85H223.75a8.35,8.35,0,0,1-6.42-2.85,275.2,275.2,0,0,1-17.49-22.75H440.2a277.28,277.28,0,0,1-17.48,22.75Zm-54-321.41c-1.75-15.24-3.77-29.52-6-42.67H405a356.27,356.27,0,0,1,14.56,42.67Zm68.41,0A388.49,388.49,0,0,0,423.36,128h27.71a298.74,298.74,0,0,1,21.17,42.67Zm-63.38,179.2a1092,1092,0,0,0,0-119.47h57.67a475.76,475.76,0,0,1,0,119.47Zm74.79,0a494.33,494.33,0,0,0,0-119.47h40.84a325.1,325.1,0,0,1,0,119.47Zm2.56,102.4H423.36a382.08,382.08,0,0,0,13.76-42.67h35.12a299.26,299.26,0,0,1-21.17,42.67Zm-46.08,0h-42.3c2.28-13.21,4.27-27.51,6-42.67h50.76A359.06,359.06,0,0,1,405,452.27ZM351.64,409.6c-1.78,15.24-3.86,29.53-6.19,42.67H294.6c-2.32-13.07-4.39-27.37-6.19-42.67Zm-131.14,0h50.77c1.75,15.23,3.77,29.52,6,42.67H235A357.32,357.32,0,0,1,220.5,409.6Z"/><path id="Shape-2" data-name="Shape" class="cls-1" d="M93.87,185.09a51.2,51.2,0,1,0-48.13,79.14A51.09,51.09,0,0,0,88.41,332.5a51.2,51.2,0,1,0,96.2,0,51.1,51.1,0,0,0,42.67-68.27,51.2,51.2,0,1,0-48.08-79.14A51.22,51.22,0,0,0,145.43,163a207.79,207.79,0,0,1,6.62-39.32,35.13,35.13,0,0,0,8.78,1.08,73,73,0,0,0,31-9.06,70.83,70.83,0,0,0,35.24-31.82s.27-.56.28-.6a56.4,56.4,0,0,0,3.86-20,73.13,73.13,0,0,1,1.1-9.9,26.71,26.71,0,0,1,1.56-4.78A62.39,62.39,0,0,1,242.68,35c2.45-3.09,4.91-6.14,7.75-9.49a13,13,0,0,0,3.72-13.66c-2-4.83-6.39-7.13-13.7-6.82l-4.78.19a180.26,180.26,0,0,0-44.79,5.26l-2,.61a89.15,89.15,0,0,0-50.62,42.18A67.57,67.57,0,0,0,130.38,101a34,34,0,0,0,6.55,12.94c-1.12,3.67-2.12,7.31-3,10.85a74.19,74.19,0,0,0-20.56-25,51,51,0,0,0-12.42-26A54.76,54.76,0,0,0,71.11,52.4l-.52-.11a44,44,0,0,0-15.89.29,52,52,0,0,1-7,.74A15.77,15.77,0,0,1,44.37,53a44.75,44.75,0,0,1-10.66-4c-2.61-1.27-5.12-2.56-8-4.08a11.43,11.43,0,0,0-12.8-.44A11.16,11.16,0,0,0,9.2,57.81l.85,3.42a135.5,135.5,0,0,0,11.1,32.2l.78,1.41a68.47,68.47,0,0,0,39.84,31.09A62.54,62.54,0,0,0,79,128.44,45,45,0,0,0,99.23,124a27.91,27.91,0,0,0,8.53-6.65A77.56,77.56,0,0,1,127.46,163,51.24,51.24,0,0,0,93.87,185.09Zm-2.3-76.34a35.4,35.4,0,0,1-25,.77A51.13,51.13,0,0,1,36.8,86.37l-.58-1a92.74,92.74,0,0,1-7.36-19.81,55.26,55.26,0,0,0,13,4.33,30,30,0,0,0,6,.52,64.07,64.07,0,0,0,9.47-.92A29,29,0,0,1,67.35,69l1.94-8.31-1.88,8.33A39.37,39.37,0,0,1,87.67,84.41c.71.86,1.8,2.25,3,3.9a83,83,0,0,0-22.38-3,8.54,8.54,0,1,0,0,17.07,59.74,59.74,0,0,1,25.06,5.12A11.82,11.82,0,0,1,91.57,108.75ZM17.07,213.33a34.13,34.13,0,1,1,62,19.4,50.9,50.9,0,0,0-22.64,14.16,34.54,34.54,0,0,1-5.27.58A34.14,34.14,0,0,1,17.07,213.33Zm76.8,102.4A34.13,34.13,0,0,1,66.62,261a8.93,8.93,0,0,0,.65-.73,33.83,33.83,0,0,1,19.07-12,34.43,34.43,0,0,1,15,0,33.86,33.86,0,0,1,19.08,11.95,7.2,7.2,0,0,0,.64.71A34.3,34.3,0,0,1,128,281.6a33.78,33.78,0,0,1-6.11,19.23A51.13,51.13,0,0,0,99,315.18a35.3,35.3,0,0,1-5.12.55ZM136.53,384a34.14,34.14,0,1,1,34.14-34.13A34.13,34.13,0,0,1,136.53,384Zm42.67-68.27a35.15,35.15,0,0,1-5.12-.55,51.13,51.13,0,0,0-22.9-14.35,33.78,33.78,0,0,1-6.11-19.23A34.14,34.14,0,0,1,152,261a8.93,8.93,0,0,0,.65-.73,33.83,33.83,0,0,1,19.07-12,34.47,34.47,0,0,1,15.06,0,33.87,33.87,0,0,1,19.07,11.95,7.2,7.2,0,0,0,.64.71,34.14,34.14,0,0,1-27.24,54.75ZM221.87,179.2a34.14,34.14,0,0,1,0,68.27,34.67,34.67,0,0,1-5.28-.58A50.84,50.84,0,0,0,194,232.73a33.94,33.94,0,0,1,27.92-53.53ZM153.32,61.33a71.81,71.81,0,0,1,40.66-34l1.61-.48a145.34,145.34,0,0,1,35.29-4.44l-1.58,2a78,78,0,0,0-11,17.38s-.32.81-.35.86a42.43,42.43,0,0,0-2.23,7.16,87.93,87.93,0,0,0-1.44,12.31,42.32,42.32,0,0,1-2.41,14.06l-.21.48a56,56,0,0,1-27.31,23.7,48.57,48.57,0,0,1-26.78,6.91A82.89,82.89,0,0,1,199.67,59,8.53,8.53,0,0,0,193,43.36a94.37,94.37,0,0,0-46.77,47.15,55.06,55.06,0,0,1,7.14-29.18ZM136.53,179.2a33.94,33.94,0,0,1,27.92,53.53,50.76,50.76,0,0,0-22.64,14.16,33.4,33.4,0,0,1-10.56,0,50.87,50.87,0,0,0-22.63-14.16,34,34,0,0,1,27.91-53.53Z"/><circle id="Oval" class="cls-1" cx="128" cy="358.4" r="8.53"/><circle id="Oval-2" data-name="Oval" class="cls-1" cx="85.33" cy="290.13" r="8.53"/><circle id="Oval-3" data-name="Oval" class="cls-1" cx="170.67" cy="290.13" r="8.53"/><circle id="Oval-4" data-name="Oval" class="cls-1" cx="128" cy="221.87" r="8.53"/><circle id="Oval-5" data-name="Oval" class="cls-1" cx="213.33" cy="221.87" r="8.53"/><circle id="Oval-6" data-name="Oval" class="cls-1" cx="42.67" cy="221.87" r="8.53"/></g></g></svg>